<?xml version="1.0" encoding="UTF-8" standalone="no"?>
<svg
   xmlns:dc="http://purl.org/dc/elements/1.1/"
   xmlns:cc="http://creativecommons.org/ns#"
   xmlns:rdf="http://www.w3.org/1999/02/22-rdf-syntax-ns#"
   xmlns:svg="http://www.w3.org/2000/svg"
   xmlns="http://www.w3.org/2000/svg"
   xmlns:sodipodi="http://sodipodi.sourceforge.net/DTD/sodipodi-0.dtd"
   xmlns:inkscape="http://www.inkscape.org/namespaces/inkscape"
   width="34.185001mm"
   height="34.67815mm"
   viewBox="0 0 34.185001 34.67815"
   version="1.1"
   id="svg2900"
   inkscape:version="1.0.2-2 (e86c870879, 2021-01-15)"
   sodipodi:docname="coffee.svg">
  <defs
     id="defs2894" />
  <sodipodi:namedview
     id="base"
     pagecolor="#ffffff"
     bordercolor="#666666"
     borderopacity="1.0"
     inkscape:pageopacity="0.0"
     inkscape:pageshadow="2"
     inkscape:zoom="0.35"
     inkscape:cx="-908.02714"
     inkscape:cy="-360.44841"
     inkscape:document-units="mm"
     inkscape:current-layer="layer1"
     inkscape:document-rotation="0"
     showgrid="false"
     inkscape:window-width="1267"
     inkscape:window-height="1040"
     inkscape:window-x="638"
     inkscape:window-y="155"
     inkscape:window-maximized="0" />
  <metadata
     id="metadata2897">
    <rdf:RDF>
      <cc:Work
         rdf:about="">
        <dc:format>image/svg+xml</dc:format>
        <dc:type
           rdf:resource="http://purl.org/dc/dcmitype/StillImage" />
        <dc:title></dc:title>
      </cc:Work>
    </rdf:RDF>
  </metadata>
  <g
     inkscape:label="Layer 1"
     inkscape:groupmode="layer"
     id="layer1"
     transform="translate(-346.08218,-243.53531)">
    <path
       stroke="#3714e7"
       stroke-width="0.0201618"
       d="m 346.09226,260.87447 c 0,-9.57061 7.64804,-17.32908 17.08236,-17.32908 9.43444,0 17.08248,7.75847 17.08248,17.32908 0,9.57048 -7.64804,17.32891 -17.08248,17.32891 -9.43432,0 -17.08236,-7.75843 -17.08236,-17.32891 z"
       fill="#345f63"
       stroke-linecap="round"
       opacity="1"
       stroke-linejoin="round"
       id="path837"
       style="clip-rule:evenodd;fill:#675a4f;fill-opacity:1;fill-rule:evenodd" />
    <g
       opacity="1"
       id="g855"
       style="clip-rule:evenodd;fill-rule:evenodd;stroke-linecap:round;stroke-linejoin:round"
       transform="matrix(0.12573221,0,0,0.12573221,298.48087,236.05895)">
      <path
         stroke="#3714e7"
         stroke-width="0.160355"
         d="m 424.48,250.519 c 0,-15.777 39.061,-28.567 87.244,-28.567 48.184,0 87.245,12.79 87.245,28.567 0,15.778 -39.061,28.568 -87.245,28.568 -48.183,0 -87.244,-12.79 -87.244,-28.568 z"
         fill="#d4c4b7"
         stroke-linecap="round"
         opacity="1"
         stroke-linejoin="round"
         id="path839" />
      <path
         stroke="#3714e7"
         stroke-width="0.160355"
         d="m 468.073,246.67 c 0,-8.013 19.648,-14.509 43.884,-14.509 24.237,0 43.885,6.496 43.885,14.509 0,8.013 -19.648,14.509 -43.885,14.509 -24.236,0 -43.884,-6.496 -43.884,-14.509 z"
         fill="#877465"
         stroke-linecap="round"
         opacity="1"
         stroke-linejoin="round"
         id="path841" />
      <path
         d="m 449.617,184.806 c 0,-18.993 28.023,-22.403 58.127,-22.816 31.443,-0.432 65.026,2.977 65.026,22.816 0,38.831 -27.569,70.31 -61.577,70.31 -34.007,0 -61.576,-31.479 -61.576,-70.31 z"
         opacity="1"
         fill="#877465"
         id="path843" />
      <path
         d="m 442.562,178.193 c 0,-18.993 31.203,-22.402 64.722,-22.816 35.012,-0.431 72.406,2.978 72.406,22.816 0,38.831 -30.697,70.31 -68.564,70.31 -37.867,0 -68.564,-31.479 -68.564,-70.31 z"
         opacity="1"
         fill="#d4c4b7"
         id="path845" />
      <path
         stroke="#3714e7"
         stroke-width="0.160355"
         d="m 452.325,177.409 c 0,-5.902 27.089,-10.687 60.504,-10.687 5.023,0 7.591,0.108 12.104,0.311 25.513,1.152 44.43,5.361 44.43,10.376 0,5.902 -26.2,10.687 -58.519,10.687 -32.32,0 -58.519,-4.785 -58.519,-10.687 z"
         fill="#75410e"
         stroke-linecap="round"
         opacity="1"
         stroke-linejoin="round"
         id="path847" />
      <path
         d="m 493.443,133.38 c -3.848,-7.5 -8.06,-9.498 -6.992,-14.91 1.596,-8.094 10.252,-17.93 11.472,-17.93 2.037,0 -7.681,14.979 -7.681,27.055 0,4.283 -1.596,8.546 -3.747,12.265 -3.913,6.765 -9.661,11.727 -10.975,11.727 -2.037,0 23.361,-7.606 17.923,-18.207 z"
         opacity="1"
         fill="#c5af9e"
         id="path849" />
      <path
         d="m 516.351,127.579 c -4.169,-8.617 -8.733,-10.912 -7.577,-17.129 1.73,-9.298 11.11,-20.5992 12.432,-20.5992 2.206,0 -8.323,17.2082 -8.323,31.0812 0,4.921 -1.73,9.819 -4.061,14.092 -4.239,7.771 -10.468,13.471 -11.892,13.471 -2.206,0 25.313,-8.737 19.421,-20.916 z"
         opacity="1"
         fill="#c5af9e"
         id="path851" />
      <path
         d="m 535.618,132.566 c -3.308,-6.855 -6.93,-8.682 -6.012,-13.628 1.373,-7.399 8.816,-16.39 9.865,-16.39 1.751,0 -6.605,13.692 -6.605,24.73 0,3.916 -1.372,7.813 -3.222,11.212 -3.364,6.183 -8.307,10.719 -9.437,10.719 -1.751,0 20.088,-6.952 15.411,-16.643 z"
         opacity="1"
         fill="#c5af9e"
         id="path853" />
    </g>
  </g>
</svg>
