<?xml version="1.0" encoding="UTF-8" standalone="no"?>
<svg
   xmlns:dc="http://purl.org/dc/elements/1.1/"
   xmlns:cc="http://creativecommons.org/ns#"
   xmlns:rdf="http://www.w3.org/1999/02/22-rdf-syntax-ns#"
   xmlns:svg="http://www.w3.org/2000/svg"
   xmlns="http://www.w3.org/2000/svg"
   xmlns:sodipodi="http://sodipodi.sourceforge.net/DTD/sodipodi-0.dtd"
   xmlns:inkscape="http://www.inkscape.org/namespaces/inkscape"
   width="71.936867mm"
   height="72.974846mm"
   viewBox="0 0 71.936866 72.974846"
   version="1.1"
   id="svg552"
   sodipodi:docname="coffee.svg"
   inkscape:version="1.0.2-2 (e86c870879, 2021-01-15)">
  <defs
     id="defs546" />
  <sodipodi:namedview
     id="base"
     pagecolor="#ffffff"
     bordercolor="#666666"
     borderopacity="1.0"
     inkscape:pageopacity="0.0"
     inkscape:pageshadow="2"
     inkscape:zoom="0.98994949"
     inkscape:cx="-91.544367"
     inkscape:cy="114.21513"
     inkscape:document-units="mm"
     inkscape:current-layer="layer1"
     inkscape:document-rotation="0"
     showgrid="false"
     inkscape:snap-others="true"
     inkscape:snap-object-midpoints="true"
     inkscape:snap-center="true"
     inkscape:snap-bbox="true"
     inkscape:bbox-paths="true"
     inkscape:bbox-nodes="true"
     inkscape:snap-bbox-edge-midpoints="true"
     inkscape:snap-bbox-midpoints="true"
     inkscape:snap-nodes="true"
     lock-margins="false"
     inkscape:window-width="1267"
     inkscape:window-height="1040"
     inkscape:window-x="295"
     inkscape:window-y="33"
     inkscape:window-maximized="0" />
  <metadata
     id="metadata549">
    <rdf:RDF>
      <cc:Work
         rdf:about="">
        <dc:format>image/svg+xml</dc:format>
        <dc:type
           rdf:resource="http://purl.org/dc/dcmitype/StillImage" />
        <dc:title></dc:title>
      </cc:Work>
    </rdf:RDF>
  </metadata>
  <g
     inkscape:label="Layer 1"
     inkscape:groupmode="layer"
     id="layer1"
     transform="translate(-53.58027,12.38784)">
    <path
       stroke="#3714e7"
       stroke-width="0.0424273"
       d="m 53.601484,24.099598 c 0,-20.1398182 16.094075,-36.466224 35.947085,-36.466224 19.853271,0 35.947351,16.3264058 35.947351,36.466224 0,20.139554 -16.09408,36.466198 -35.947351,36.466198 -19.85301,0 -35.947085,-16.326644 -35.947085,-36.466198 z"
       fill="#675a4f"
       stroke-linecap="round"
       opacity="1"
       stroke-linejoin="round"
       id="path2181"
       style="clip-rule:evenodd;fill-rule:evenodd;stroke-linecap:round;stroke-linejoin:round" />
    <g
       opacity="1"
       id="g2221"
       style="clip-rule:evenodd;fill-rule:evenodd;stroke-linecap:round;stroke-linejoin:round"
       transform="matrix(0.26458333,0,0,0.26458333,-46.589079,-28.428924)">
      <path
         stroke="#3714e7"
         stroke-width="0.160355"
         d="m 424.48,251.685 c 0,-15.778 39.061,-28.568 87.244,-28.568 48.184,0 87.245,12.79 87.245,28.568 0,15.777 -39.061,28.567 -87.245,28.567 -48.183,0 -87.244,-12.79 -87.244,-28.567 z"
         fill="#d4c4b7"
         stroke-linecap="round"
         opacity="1"
         stroke-linejoin="round"
         id="path2205" />
      <path
         stroke="#3714e7"
         stroke-width="0.160355"
         d="m 468.073,247.835 c 0,-8.013 19.648,-14.509 43.884,-14.509 24.237,0 43.885,6.496 43.885,14.509 0,8.013 -19.648,14.509 -43.885,14.509 -24.236,0 -43.884,-6.496 -43.884,-14.509 z"
         fill="#877465"
         stroke-linecap="round"
         opacity="1"
         stroke-linejoin="round"
         id="path2207" />
      <path
         d="m 449.617,185.971 c 0,-18.993 28.023,-22.403 58.127,-22.816 31.443,-0.432 65.026,2.978 65.026,22.816 0,38.831 -27.569,70.31 -61.577,70.31 -34.007,0 -61.576,-31.479 -61.576,-70.31 z"
         opacity="1"
         fill="#877465"
         id="path2209" />
      <path
         d="m 442.562,179.359 c 0,-18.993 31.203,-22.403 64.722,-22.816 35.012,-0.432 72.406,2.977 72.406,22.816 0,38.831 -30.697,70.31 -68.564,70.31 -37.867,0 -68.564,-31.479 -68.564,-70.31 z"
         opacity="1"
         fill="#d4c4b7"
         id="path2211" />
      <path
         stroke="#3714e7"
         stroke-width="0.160355"
         d="m 452.325,178.574 c 0,-5.902 27.089,-10.687 60.504,-10.687 5.023,0 7.591,0.108 12.104,0.312 25.513,1.151 44.43,5.36 44.43,10.375 0,5.903 -26.2,10.687 -58.519,10.687 -32.32,0 -58.519,-4.784 -58.519,-10.687 z"
         fill="#75410e"
         stroke-linecap="round"
         opacity="1"
         stroke-linejoin="round"
         id="path2213" />
      <path
         d="m 493.443,134.545 c -3.848,-7.5 -8.06,-9.498 -6.992,-14.91 1.596,-8.093 10.252,-17.93 11.472,-17.93 2.037,0 -7.681,14.979 -7.681,27.055 0,4.283 -1.596,8.547 -3.747,12.265 -3.913,6.765 -9.661,11.727 -10.975,11.727 -2.037,0 23.361,-7.606 17.923,-18.207 z"
         opacity="1"
         fill="#c5af9e"
         id="path2215" />
      <path
         d="m 516.351,128.744 c -4.169,-8.616 -8.733,-10.912 -7.577,-17.129 1.73,-9.298 11.11,-20.5989 12.432,-20.5989 2.206,0 -8.323,17.2089 -8.323,31.0819 0,4.921 -1.73,9.819 -4.061,14.091 -4.239,7.771 -10.468,13.472 -11.892,13.472 -2.206,0 25.313,-8.738 19.421,-20.917 z"
         opacity="1"
         fill="#c5af9e"
         id="path2217" />
      <path
         d="m 535.618,133.732 c -3.308,-6.856 -6.93,-8.682 -6.012,-13.629 1.373,-7.398 8.816,-16.39 9.865,-16.39 1.751,0 -6.605,13.692 -6.605,24.73 0,3.916 -1.372,7.813 -3.222,11.212 -3.364,6.183 -8.307,10.719 -9.437,10.719 -1.751,0 20.088,-6.952 15.411,-16.642 z"
         opacity="1"
         fill="#c5af9e"
         id="path2219" />
    </g>
  </g>
</svg>
