<?xml version="1.0" encoding="UTF-8" standalone="no"?>
<svg
   xmlns:dc="http://purl.org/dc/elements/1.1/"
   xmlns:cc="http://creativecommons.org/ns#"
   xmlns:rdf="http://www.w3.org/1999/02/22-rdf-syntax-ns#"
   xmlns:svg="http://www.w3.org/2000/svg"
   xmlns="http://www.w3.org/2000/svg"
   xmlns:sodipodi="http://sodipodi.sourceforge.net/DTD/sodipodi-0.dtd"
   xmlns:inkscape="http://www.inkscape.org/namespaces/inkscape"
   width="34.158974mm"
   height="34.651722mm"
   viewBox="0 0 34.158974 34.651723"
   version="1.1"
   id="svg2900"
   inkscape:version="1.0.2-2 (e86c870879, 2021-01-15)"
   sodipodi:docname="phase2_ready.svg">
  <defs
     id="defs2894" />
  <sodipodi:namedview
     id="base"
     pagecolor="#ffffff"
     bordercolor="#666666"
     borderopacity="1.0"
     inkscape:pageopacity="0.0"
     inkscape:pageshadow="2"
     inkscape:zoom="0.35"
     inkscape:cx="-2.0774973"
     inkscape:cy="-91.693586"
     inkscape:document-units="mm"
     inkscape:current-layer="layer1"
     inkscape:document-rotation="0"
     showgrid="false"
     inkscape:window-width="1267"
     inkscape:window-height="1040"
     inkscape:window-x="870"
     inkscape:window-y="119"
     inkscape:window-maximized="0" />
  <metadata
     id="metadata2897">
    <rdf:RDF>
      <cc:Work
         rdf:about="">
        <dc:format>image/svg+xml</dc:format>
        <dc:type
           rdf:resource="http://purl.org/dc/dcmitype/StillImage" />
        <dc:title></dc:title>
      </cc:Work>
    </rdf:RDF>
  </metadata>
  <g
     inkscape:label="Layer 1"
     inkscape:groupmode="layer"
     id="layer1"
     transform="translate(-106.38301,-172.42727)">
    <path
       stroke="#3714e7"
       stroke-width="0.0201618"
       d="m 106.39309,189.75319 c 0,-9.56332 7.642,-17.31584 17.0694,-17.31584 9.4274,0 17.06941,7.75252 17.06941,17.31584 0,9.56319 -7.64201,17.31572 -17.06941,17.31572 -9.4274,0 -17.0694,-7.75253 -17.0694,-17.31572 z"
       fill="#3e84ba"
       stroke-linecap="round"
       opacity="1"
       stroke-linejoin="round"
       id="path944"
       style="clip-rule:evenodd;fill-rule:evenodd;stroke:#3e84ba;stroke-opacity:1" />
    <g
       opacity="1"
       id="g960"
       style="clip-rule:evenodd;fill-rule:evenodd;stroke-linecap:round;stroke-linejoin:round"
       transform="matrix(0.12573221,0,0,0.12573221,-24.402356,121.22423)">
      <path
         stroke="#a69d9d"
         stroke-width="6.92808"
         d="m 1119.37,557.583 c -19.54,-21.152 -18.23,-54.136 2.93,-73.671 21.15,-19.535 54.13,-18.225 73.67,2.928 19.53,21.152 18.22,54.136 -2.93,73.671 -21.15,19.535 -54.14,18.225 -73.67,-2.928 z"
         fill="#ffffff"
         stroke-linecap="butt"
         opacity="1"
         stroke-linejoin="round"
         id="path946" />
      <path
         stroke="#a69d9d"
         stroke-width="6.92808"
         d="m 1191.53,559.834 50.25,54.893"
         fill="none"
         stroke-linecap="butt"
         opacity="1"
         stroke-linejoin="round"
         id="path948" />
      <path
         stroke="#a69d9d"
         stroke-width="6.92808"
         d="m 1210.07,584.549 5.44,-4.991 c 0.94,-0.864 2.35,-0.865 3.15,-0.002 l 33.57,36.154 c 0.81,0.863 0.69,2.263 -0.25,3.127 l -5.43,4.992 c -0.94,0.864 -2.35,0.865 -3.16,0.002 l -33.57,-36.154 c -0.8,-0.863 -0.69,-2.264 0.25,-3.128 z"
         fill="#a49a9a"
         stroke-linecap="round"
         opacity="1"
         stroke-linejoin="round"
         id="path950" />
      <path
         stroke="#a69d9d"
         stroke-width="6.92808"
         d="m 1149.93,526.833 c -8.89,-9.626 -8.52,-24.429 0.83,-33.064 9.35,-8.635 24.13,-7.831 33.02,1.795 8.89,9.626 8.52,24.43 -0.83,33.065 -9.35,8.634 -24.13,7.831 -33.02,-1.796 z"
         fill="#ffffff"
         stroke-linecap="butt"
         opacity="1"
         stroke-linejoin="round"
         id="path952" />
      <path
         d="m 1122.81,510.06 29.22,-26.989 c 0.95,-0.88 2.43,-0.83 3.3,0.112 l 18.75,20.306 c 0.87,0.942 0.81,2.419 -0.15,3.299 l -29.22,26.989 c -0.95,0.88 -2.43,0.83 -3.3,-0.113 l -18.75,-20.305 c -0.87,-0.942 -0.81,-2.419 0.15,-3.299 z"
         opacity="1"
         fill="#ffffff"
         id="path954" />
      <path
         d="m 1174.09,516.057 26.1,0.635 c 0.86,0.021 1.53,0.631 1.51,1.363 l -0.38,15.773 c -0.02,0.732 -0.72,1.309 -1.57,1.288 l -26.11,-0.635 c -0.85,-0.021 -1.53,-0.631 -1.51,-1.363 l 0.38,-15.774 c 0.02,-0.731 0.73,-1.308 1.58,-1.287 z"
         opacity="1"
         fill="#ffffff"
         id="path956" />
      <path
         d="m 1144.73,533.196 26.71,-24.669 c 0.87,-0.804 2.27,-0.707 3.12,0.217 l 18.39,19.913 c 0.85,0.924 0.84,2.325 -0.03,3.129 l -26.71,24.669 c -0.87,0.804 -2.27,0.707 -3.12,-0.217 l -18.39,-19.913 c -0.86,-0.924 -0.84,-2.325 0.03,-3.129 z"
         opacity="1"
         fill="#ffffff"
         id="path958" />
    </g>
  </g>
</svg>
