<?xml version="1.0" encoding="UTF-8" standalone="no"?>
<svg
   xmlns:dc="http://purl.org/dc/elements/1.1/"
   xmlns:cc="http://creativecommons.org/ns#"
   xmlns:rdf="http://www.w3.org/1999/02/22-rdf-syntax-ns#"
   xmlns:svg="http://www.w3.org/2000/svg"
   xmlns="http://www.w3.org/2000/svg"
   xmlns:sodipodi="http://sodipodi.sourceforge.net/DTD/sodipodi-0.dtd"
   xmlns:inkscape="http://www.inkscape.org/namespaces/inkscape"
   width="71.882095mm"
   height="72.919258mm"
   viewBox="0 0 71.882094 72.919258"
   version="1.1"
   id="svg552"
   sodipodi:docname="phase2_wait.svg"
   inkscape:version="1.0.2-2 (e86c870879, 2021-01-15)">
  <defs
     id="defs546" />
  <sodipodi:namedview
     id="base"
     pagecolor="#ffffff"
     bordercolor="#666666"
     borderopacity="1.0"
     inkscape:pageopacity="0.0"
     inkscape:pageshadow="2"
     inkscape:zoom="0.98994949"
     inkscape:cx="-73.328137"
     inkscape:cy="-77.833755"
     inkscape:document-units="mm"
     inkscape:current-layer="layer1"
     inkscape:document-rotation="0"
     showgrid="false"
     inkscape:snap-others="true"
     inkscape:snap-object-midpoints="true"
     inkscape:snap-center="true"
     inkscape:snap-bbox="true"
     inkscape:bbox-paths="true"
     inkscape:bbox-nodes="true"
     inkscape:snap-bbox-edge-midpoints="true"
     inkscape:snap-bbox-midpoints="true"
     inkscape:snap-nodes="true"
     lock-margins="false"
     inkscape:window-width="1267"
     inkscape:window-height="1040"
     inkscape:window-x="295"
     inkscape:window-y="33"
     inkscape:window-maximized="0" />
  <metadata
     id="metadata549">
    <rdf:RDF>
      <cc:Work
         rdf:about="">
        <dc:format>image/svg+xml</dc:format>
        <dc:type
           rdf:resource="http://purl.org/dc/dcmitype/StillImage" />
        <dc:title></dc:title>
      </cc:Work>
    </rdf:RDF>
  </metadata>
  <g
     inkscape:label="Layer 1"
     inkscape:groupmode="layer"
     id="layer1"
     transform="translate(-48.760558,-38.425094)">
    <path
       stroke="#3714e7"
       stroke-width="0.0424273"
       d="m 48.781772,74.884725 c 0,-20.124209 16.081904,-36.438417 35.919833,-36.438417 19.837925,0 35.919835,16.314208 35.919835,36.438417 0,20.124472 -16.08191,36.438415 -35.919835,36.438415 -19.837929,0 -35.919833,-16.313943 -35.919833,-36.438415 z"
       fill="#3e84ba"
       stroke-linecap="round"
       opacity="1"
       stroke-linejoin="round"
       id="path2193"
       style="clip-rule:evenodd;fill-rule:evenodd;stroke-linecap:round;stroke-linejoin:round" />
    <path
       stroke="#e5e5e5"
       stroke-width="1.83305"
       d="m 60.452014,75.504379 h 48.082996 c 0.32438,0 0.58711,0.519377 0.58711,1.160198 v 11.929004 c 0,0.64082 -0.26273,1.160198 -0.58711,1.160198 H 60.452014 c -0.324379,0 -0.587375,-0.519378 -0.587375,-1.160198 V 76.664577 c 0,-0.640821 0.262996,-1.160198 0.587375,-1.160198 z"
       fill="#ffffff"
       stroke-linecap="butt"
       opacity="1"
       stroke-linejoin="round"
       id="path2380"
       style="clip-rule:evenodd;fill-rule:evenodd;stroke-linecap:round;stroke-linejoin:round" />
    <path
       stroke="#e5e5e5"
       stroke-width="1.83305"
       d="m 64.453043,82.867733 c 0,-1.488811 1.948921,-2.695575 4.352925,-2.695575 2.404004,0 4.352925,1.206764 4.352925,2.695575 0,1.488546 -1.948921,2.695575 -4.352925,2.695575 -2.404004,0 -4.352925,-1.207029 -4.352925,-2.695575 z"
       fill="#6eccd9"
       stroke-linecap="butt"
       opacity="1"
       stroke-linejoin="round"
       id="path2386"
       style="clip-rule:evenodd;fill-rule:evenodd;stroke-linecap:round;stroke-linejoin:round" />
    <path
       stroke="#e5e5e5"
       stroke-width="1.83305"
       d="m 81.133699,78.563227 h 19.344741 c 0.2458,0 0.4453,0.277547 0.4453,0.620183 v 5.150114 c 0,0.342636 -0.1995,0.620448 -0.4453,0.620448 H 81.133699 c -0.246062,0 -0.445294,-0.277812 -0.445294,-0.620448 V 79.18341 c 0,-0.342636 0.199232,-0.620183 0.445294,-0.620183 z"
       fill="#edf4f5"
       stroke-linecap="butt"
       opacity="1"
       stroke-linejoin="round"
       id="path2392"
       style="clip-rule:evenodd;fill-rule:evenodd;stroke-linecap:round;stroke-linejoin:round" />
    <g
       opacity="1"
       id="g2402"
       style="clip-rule:evenodd;fill-rule:evenodd;stroke-linecap:round;stroke-linejoin:round"
       transform="matrix(0.26458333,0,0,0.26458333,-52.972743,-66.895957)">
      <path
         d="m 566.333,583.061 c 0.005,1.32 -0.338,2.345 -1.031,3.077 -0.692,0.731 -1.48,1.139 -2.365,1.223 l -0.005,-1.377 c 0.671,-0.159 1.202,-0.472 1.592,-0.939 0.391,-0.468 0.585,-1.123 0.581,-1.965 -0.004,-1.026 -0.368,-1.854 -1.092,-2.483 -0.724,-0.628 -1.831,-0.939 -3.321,-0.933 -1.221,0.005 -2.21,0.294 -2.966,0.867 -0.757,0.573 -1.134,1.425 -1.129,2.556 0.004,1.04 0.407,1.831 1.209,2.372 0.422,0.287 0.977,0.5 1.663,0.639 l 0.006,1.376 c -1.098,-0.118 -2.02,-0.521 -2.766,-1.209 -0.897,-0.824 -1.349,-1.939 -1.354,-3.344 -0.005,-1.211 0.357,-2.229 1.087,-3.056 0.965,-1.087 2.46,-1.635 4.485,-1.643 1.538,-0.006 2.8,0.396 3.787,1.205 1.073,0.876 1.613,2.087 1.619,3.634 z"
         opacity="1"
         fill="#384d51"
         id="path2398" />
      <path
         d="m 532.637,586.392 -1.242,0.005 -0.014,-3.512 -9.182,0.037 -0.006,-1.433 9.182,-0.038 -0.014,-3.512 1.241,-0.005 z"
         opacity="1"
         fill="#384d51"
         id="path2400" />
    </g>
    <g
       opacity="1"
       id="g2466"
       style="clip-rule:evenodd;fill-rule:evenodd;stroke-linecap:round;stroke-linejoin:round"
       transform="matrix(0.26458333,0,0,0.26458333,-52.972743,-66.895957)">
      <path
         stroke="#a69e9e"
         stroke-width="6.92808"
         d="m 482.407,472.29 c -1.295,-18.907 12.624,-35.26 31.088,-36.525 18.465,-1.264 34.483,13.038 35.778,31.946 1.295,18.907 -12.624,35.26 -31.089,36.524 -18.464,1.265 -34.482,-13.038 -35.777,-31.945 z"
         fill="#ffffff"
         stroke-linecap="butt"
         opacity="1"
         stroke-linejoin="round"
         id="path2460" />
      <path
         stroke="#a69e9e"
         stroke-width="6.92808"
         d="m 514.819,472.008 0.356,-21.218"
         fill="none"
         stroke-linecap="round"
         opacity="1"
         stroke-linejoin="round"
         id="path2462" />
      <path
         stroke="#a69e9e"
         stroke-width="6.92808"
         d="m 514.57,471.975 19.987,7.131"
         fill="none"
         stroke-linecap="round"
         opacity="1"
         stroke-linejoin="round"
         id="path2464" />
    </g>
  </g>
</svg>
