<?xml version="1.0" encoding="UTF-8" standalone="no"?>
<svg
   xmlns:dc="http://purl.org/dc/elements/1.1/"
   xmlns:cc="http://creativecommons.org/ns#"
   xmlns:rdf="http://www.w3.org/1999/02/22-rdf-syntax-ns#"
   xmlns:svg="http://www.w3.org/2000/svg"
   xmlns="http://www.w3.org/2000/svg"
   xmlns:sodipodi="http://sodipodi.sourceforge.net/DTD/sodipodi-0.dtd"
   xmlns:inkscape="http://www.inkscape.org/namespaces/inkscape"
   width="72.408432mm"
   height="73.4534mm"
   viewBox="0 0 72.408432 73.4534"
   version="1.1"
   id="svg552"
   inkscape:version="1.0.2-2 (e86c870879, 2021-01-15)"
   sodipodi:docname="probe_in_nose.svg">
  <defs
     id="defs546" />
  <sodipodi:namedview
     id="base"
     pagecolor="#ffffff"
     bordercolor="#666666"
     borderopacity="1.0"
     inkscape:pageopacity="0.0"
     inkscape:pageshadow="2"
     inkscape:zoom="0.98994949"
     inkscape:cx="310.29136"
     inkscape:cy="319.42608"
     inkscape:document-units="mm"
     inkscape:current-layer="layer1"
     inkscape:document-rotation="0"
     showgrid="false"
     inkscape:snap-others="true"
     inkscape:snap-object-midpoints="true"
     inkscape:snap-center="true"
     inkscape:snap-bbox="true"
     inkscape:bbox-paths="true"
     inkscape:bbox-nodes="true"
     inkscape:snap-bbox-edge-midpoints="true"
     inkscape:snap-bbox-midpoints="true"
     inkscape:snap-nodes="true"
     lock-margins="false"
     fit-margin-top="0"
     fit-margin-left="0"
     fit-margin-right="0"
     fit-margin-bottom="0"
     inkscape:window-width="1267"
     inkscape:window-height="1040"
     inkscape:window-x="413"
     inkscape:window-y="62"
     inkscape:window-maximized="0" />
  <metadata
     id="metadata549">
    <rdf:RDF>
      <cc:Work
         rdf:about="">
        <dc:format>image/svg+xml</dc:format>
        <dc:type
           rdf:resource="http://purl.org/dc/dcmitype/StillImage" />
        <dc:title></dc:title>
      </cc:Work>
    </rdf:RDF>
  </metadata>
  <g
     inkscape:label="Layer 1"
     inkscape:groupmode="layer"
     id="layer1"
     transform="translate(-0.0814997,-0.12597887)">
    <path
       stroke="#3714e7"
       stroke-width="0.0424273"
       d="m 0.10271335,36.852786 c 0,-20.272111 16.19972365,-36.70559348 36.18290865,-36.70559348 19.98345,0 36.183098,16.43348248 36.183098,36.70559348 0,20.271849 -16.199648,36.705379 -36.183098,36.705379 -19.983185,0 -36.18290865,-16.43353 -36.18290865,-36.705379 z"
       fill="#3e6174"
       stroke-linecap="round"
       opacity="1"
       stroke-linejoin="round"
       id="path282"
       style="clip-rule:evenodd;fill-rule:evenodd;stroke-linecap:round;stroke-linejoin:round" />
    <g
       opacity="1"
       id="g329"
       style="clip-rule:evenodd;fill-rule:evenodd;stroke-linecap:round;stroke-linejoin:round"
       transform="matrix(0.26458333,0,0,0.26458333,-14.339752,-15.197371)">
      <path
         d="m 155.875,146.836 c 0,-23.565 13.33,-42.668 29.773,-42.668 10.513,0 24.459,8.916 30.273,22.538 3.279,7.683 1.252,17.839 1.252,26.337 0,23.565 -16.954,48.464 -31.525,36.461 -25.817,-21.267 -29.773,-19.103 -29.773,-42.668 z"
         opacity="1"
         fill="#eec2a1"
         id="path325" />
      <path
         d="m 185.856,102.075 c -18.356,0 -30.622,15.983 -31.921,25.324 -1.157,4.626 -1.875,10.609 -1.875,17.227 0,14.546 3.371,26.331 7.544,26.331 4.172,0 7.558,-11.785 7.558,-26.331 0,-2.992 -0.169,-5.823 -0.433,-8.504 6.462,-0.339 14.621,-1.634 23.137,-1.634 19.027,0 29.05,6.127 29.05,-3.034 0,-9.161 -14.033,-29.379 -33.06,-29.379 z"
         opacity="1"
         fill="#f7df57"
         id="path327" />
    </g>
    <path
       d="m 29.0326,31.723573 8.134614,0.0021 0.668602,8.844756 -8.83285,-0.582613 -0.366448,0.230453 z"
       opacity="1"
       fill="#eec2a1"
       id="path331"
       style="clip-rule:evenodd;fill-rule:evenodd;stroke-width:0.264583;stroke-linecap:round;stroke-linejoin:round" />
    <path
       d="m 28.41612,45.194304 c 0,-0.04048 0.02196,-0.07329 0.04895,-0.07329 0.02699,0 0.04895,0.03281 0.04895,0.07329 0,0.04048 -0.02196,0.07329 -0.04895,0.07329 -0.02699,0 -0.04895,-0.03281 -0.04895,-0.07329 z"
       opacity="1"
       fill="#eec2a1"
       id="path333"
       style="clip-rule:evenodd;fill-rule:evenodd;stroke-width:0.264583;stroke-linecap:round;stroke-linejoin:round" />
    <path
       d="m 21.93912,43.185588 c 1.204384,-2.780242 6.392334,-2.277534 9.616811,-0.516732 1.822714,0.995363 0.703791,2.005013 3.598598,4.008967 0,0 2.215356,2.031206 4.707731,4.5212 2.388129,2.385752 5.030787,5.192452 6.223,7.036592 1.976173,3.057 3.381639,3.3446 2.537618,5.29352 -1.885156,4.35134 -8.044656,0.98822 -16.128206,-4.38467 C 24.411387,53.771305 20.054229,47.536925 21.93912,43.185588 Z"
       opacity="1"
       fill="#77d9bc"
       id="path335"
       style="clip-rule:evenodd;fill-rule:evenodd;stroke-width:0.264583;stroke-linecap:round;stroke-linejoin:round" />
    <path
       d="m 49.774081,53.781625 c 5.000889,-5.13345 9.995959,-9.808108 11.916039,-7.785369 1.91982,2.02274 -2.99879,8.158429 -7.999942,13.291869 -5.000889,5.13345 -8.697118,8.30924 -10.616935,6.2865 -0.954087,-1.00515 -3.474508,-4.04309 -2.202921,-6.07959 1.287198,-2.06137 6.387836,-3.13082 8.903759,-5.71341 z"
       opacity="1"
       fill="#77d9bc"
       id="path337"
       style="clip-rule:evenodd;fill-rule:evenodd;stroke-width:0.264583;stroke-linecap:round;stroke-linejoin:round" />
    <path
       d="m 28.812731,51.204315 c 0,-5.181336 2.856706,-7.912894 8.098631,-7.912894 3.334279,0 5.630862,2.589742 7.526602,4.973637 1.084527,1.364192 2.596885,1.987815 2.596885,3.8735 0,5.181067 -3.488795,8.446827 -8.73072,8.446827 -5.241925,0 -9.491398,-4.2 -9.491398,-9.38107 z"
       opacity="1"
       fill="#77d9bc"
       id="path339"
       style="clip-rule:evenodd;fill-rule:evenodd;stroke-width:0.264583;stroke-linecap:round;stroke-linejoin:round" />
    <path
       d="m 26.369833,44.259796 v 0 c 0.01217,0 0.02196,0.0098 0.02196,0.02196 v 0 c 0,0.01217 -0.0098,0.02196 -0.02196,0.02196 v 0 c -0.01217,0 -0.02196,-0.0098 -0.02196,-0.02196 v 0 c 0,-0.01217 0.0098,-0.02196 0.02196,-0.02196 z"
       opacity="1"
       fill="#77d9bc"
       id="path341"
       style="clip-rule:evenodd;fill-rule:evenodd;stroke-width:0.264583;stroke-linecap:round;stroke-linejoin:round" />
    <path
       d="m 28.776218,36.649321 10.362406,2.074862 c 0.242888,0.04868 0.405871,0.315913 0.363802,0.596636 l -1.275291,8.509794 C 38.185065,48.1116 37.95382,48.299983 37.710933,48.2513 L 27.348527,46.176438 c -0.243152,-0.04868 -0.405871,-0.315648 -0.363802,-0.596636 l 1.275027,-8.509793 c 0.04233,-0.280988 0.273314,-0.469371 0.516466,-0.420688 z"
       opacity="1"
       fill="#77d9bc"
       id="path343"
       style="clip-rule:evenodd;fill-rule:evenodd;stroke-width:0.264583;stroke-linecap:round;stroke-linejoin:round" />
    <path
       d="m 26.565095,52.974645 h 18.200159 c 0.36486,0 0.660664,0.25691 0.660664,0.57361 v 17.64348 c 0,0.3167 -0.295804,0.57361 -0.660664,0.57361 H 26.565095 c -0.365125,0 -0.660929,-0.25691 -0.660929,-0.57361 l 1.852084,-3.16389 -1.852084,-14.47959 c 0,-0.3167 0.295804,-0.57361 0.660929,-0.57361 z"
       opacity="1"
       fill="#77d9bc"
       id="path345"
       style="clip-rule:evenodd;fill-rule:evenodd;stroke-width:0.264583;stroke-linecap:round;stroke-linejoin:round" />
    <path
       d="m 26.109483,20.352046 h 4.752446 l 2.704041,20.442237 -10.356585,0.145786 z"
       opacity="1"
       fill="#f7df57"
       id="path347"
       style="clip-rule:evenodd;fill-rule:evenodd;stroke-width:0.264583;stroke-linecap:round;stroke-linejoin:round" />
    <path
       d="m 62.58679,36.066179 c -1.36075,-0.314325 -2.1836,-0.447675 -2.94137,0.119592 -0.11562,0.08625 -0.17171,0.302683 0.24183,0.399521 0.44423,0.103981 1.10093,0.01482 1.70233,0.341048 0.48366,0.262466 1.41843,0.661194 1.44462,1.174485 0.0167,0.321469 0.027,0.949061 0.0624,1.52109 -0.17277,-0.432065 -0.39422,-0.88609 -0.73501,-1.308629 -0.10451,-0.129382 -0.22357,-0.253207 -0.34501,-0.373328 -0.1913,-0.188912 -0.34608,-0.369093 -0.526,-0.527843 -0.35718,-0.315384 -0.80063,-0.537369 -1.73884,-0.495829 -1.28085,0.05688 -2.03332,0.156368 -2.457977,0.918897 -0.06482,0.116417 -0.03149,0.339461 0.358246,0.323321 0.418571,-0.0172 0.945361,-0.284691 1.584321,-0.125412 0.51356,0.128323 1.46341,0.273314 1.6854,0.772054 0.19288,0.433387 0.62204,1.490133 0.92472,2.015331 -0.0201,0.04101 -0.028,0.09366 -0.0609,0.121444 -0.26379,0.223308 -0.5072,0.510646 -0.7366,0.821796 -0.5154,-0.187325 -1.0578,-0.383646 -1.35175,-0.722048 -0.14288,-0.164836 -0.52573,-0.769144 -0.65194,-0.927894 -1.225545,-1.539875 -1.271053,-2.024856 -1.74307,-1.871662 -0.520435,0.169068 -0.793221,1.112043 0.737129,2.874962 0.764911,0.881327 1.561311,1.646238 2.233351,2.168525 -0.12012,0.298979 -0.27438,0.565944 -0.35984,0.890588 -0.48604,1.84732 0.5514,2.940579 2.65563,3.494352 0.79824,0.210079 0.73051,-0.02805 1.20253,-0.412221 0.77205,-0.628121 1.1086,-1.823509 1.41023,-2.969948 0.15187,-0.57785 0.0122,-0.360627 0.0944,-1.364456 L 65.414,42.397923 65.26636,41.234286 c -0.13652,0.04339 0.17992,-0.517261 -0.0897,-0.663046 0.18044,-0.572029 -0.10001,-1.592792 -0.44715,-2.50534 -0.0556,-0.146579 -0.11694,-0.289983 -0.1942,-0.433123 -0.12197,-0.22516 -0.21273,-0.435768 -0.33523,-0.630237 -0.24315,-0.386821 -0.61648,-0.706173 -1.61343,-0.936361 z"
       opacity="1"
       fill="#eec2a1"
       id="path349"
       style="clip-rule:evenodd;fill-rule:evenodd;stroke-width:0.264583;stroke-linecap:round;stroke-linejoin:round" />
    <path
       d="m 56.43232,47.701231 2.98238,-3.149864 c 0.17013,-0.179652 0.45059,-0.186796 0.62627,-0.01561 l 3.15542,3.069167 c 0.17569,0.170921 0.18018,0.455348 0.0101,0.635 l -2.98212,3.149864 c -0.17013,0.179653 -0.45059,0.186796 -0.62654,0.01587 l -3.155151,-3.069431 c -0.175948,-0.170921 -0.180446,-0.455348 -0.01032,-0.635 z"
       opacity="1"
       fill="#77d9bc"
       id="path351"
       style="clip-rule:evenodd;fill-rule:evenodd;stroke-width:0.264583;stroke-linecap:round;stroke-linejoin:round" />
    <path
       d="m 63.11543,42.307171 c 0.0513,-1.473729 0.64135,-2.67044 1.31789,-2.673085 0.67654,-0.0024 1.18348,1.19036 1.13215,2.664354 -0.0516,1.473729 -0.64161,2.670704 -1.31815,2.673085 -0.67628,0.0024 -1.18322,-1.19036 -1.13189,-2.664354 z"
       opacity="1"
       fill="#eec2a1"
       id="path353"
       style="clip-rule:evenodd;fill-rule:evenodd;stroke-width:0.264583;stroke-linecap:round;stroke-linejoin:round" />
    <path
       d="m 64.20366,42.526775 c 0.006,-0.0217 0.0664,-0.02461 0.13547,-0.0063 0.0691,0.01799 0.12038,0.05054 0.11456,0.07223 -0.006,0.0217 -0.0661,0.02434 -0.1352,0.0064 -0.0693,-0.01826 -0.12065,-0.05054 -0.11483,-0.07223 z"
       opacity="1"
       fill="#eec2a1"
       id="path355"
       style="clip-rule:evenodd;fill-rule:evenodd;stroke-width:0.264583;stroke-linecap:round;stroke-linejoin:round" />
    <path
       stroke="#d0eceb"
       stroke-width="0.169396"
       d="m 48.029947,30.296146 c -0.519641,-0.439737 -0.855133,-1.017852 -0.749035,-1.290902 0.105833,-0.27305 0.613039,-0.137583 1.132416,0.302419 0.519642,0.439737 0.854869,1.017852 0.749036,1.290902 -0.105833,0.27305 -0.61304,0.137583 -1.132417,-0.302419 z"
       fill="#87cfda"
       stroke-linecap="round"
       opacity="1"
       stroke-linejoin="round"
       id="path357"
       style="clip-rule:evenodd;fill-rule:evenodd;stroke-linecap:round;stroke-linejoin:round" />
    <path
       stroke="#7a7a7a"
       stroke-width="0.649057"
       d="m 48.947258,30.566815 8.513497,7.693025"
       fill="none"
       stroke-linecap="butt"
       opacity="1"
       stroke-linejoin="round"
       id="path359"
       style="clip-rule:evenodd;fill-rule:evenodd;stroke-linecap:round;stroke-linejoin:round" />
  </g>
</svg>
