<?xml version="1.0" encoding="UTF-8" standalone="no"?>
<svg
   xmlns:dc="http://purl.org/dc/elements/1.1/"
   xmlns:cc="http://creativecommons.org/ns#"
   xmlns:rdf="http://www.w3.org/1999/02/22-rdf-syntax-ns#"
   xmlns:svg="http://www.w3.org/2000/svg"
   xmlns="http://www.w3.org/2000/svg"
   xmlns:sodipodi="http://sodipodi.sourceforge.net/DTD/sodipodi-0.dtd"
   xmlns:inkscape="http://www.inkscape.org/namespaces/inkscape"
   width="71.882095mm"
   height="72.919525mm"
   viewBox="0 0 71.882095 72.919525"
   version="1.1"
   id="svg552"
   sodipodi:docname="result_positive.svg"
   inkscape:version="1.0.2-2 (e86c870879, 2021-01-15)">
  <defs
     id="defs546" />
  <sodipodi:namedview
     id="base"
     pagecolor="#ffffff"
     bordercolor="#666666"
     borderopacity="1.0"
     inkscape:pageopacity="0.0"
     inkscape:pageshadow="2"
     inkscape:zoom="0.98994949"
     inkscape:cx="-168.8992"
     inkscape:cy="-76.218025"
     inkscape:document-units="mm"
     inkscape:current-layer="layer1"
     inkscape:document-rotation="0"
     showgrid="false"
     inkscape:snap-others="true"
     inkscape:snap-object-midpoints="true"
     inkscape:snap-center="true"
     inkscape:snap-bbox="true"
     inkscape:bbox-paths="true"
     inkscape:bbox-nodes="true"
     inkscape:snap-bbox-edge-midpoints="true"
     inkscape:snap-bbox-midpoints="true"
     inkscape:snap-nodes="true"
     lock-margins="false"
     inkscape:window-width="1267"
     inkscape:window-height="1040"
     inkscape:window-x="295"
     inkscape:window-y="33"
     inkscape:window-maximized="0" />
  <metadata
     id="metadata549">
    <rdf:RDF>
      <cc:Work
         rdf:about="">
        <dc:format>image/svg+xml</dc:format>
        <dc:type
           rdf:resource="http://purl.org/dc/dcmitype/StillImage" />
        <dc:title></dc:title>
      </cc:Work>
    </rdf:RDF>
  </metadata>
  <g
     inkscape:label="Layer 1"
     inkscape:groupmode="layer"
     id="layer1"
     transform="translate(-74.047069,-37.9976)">
    <path
       stroke="#3714e7"
       stroke-width="0.0424273"
       d="m 74.068283,74.457231 c 0,-20.124473 16.081375,-36.438417 35.919837,-36.438417 19.83845,0 35.91983,16.313944 35.91983,36.438417 0,20.124472 -16.08138,36.438679 -35.91983,36.438679 -19.838462,0 -35.919837,-16.314207 -35.919837,-36.438679 z"
       fill="#950707"
       stroke-linecap="round"
       opacity="1"
       stroke-linejoin="round"
       id="path2197"
       style="clip-rule:evenodd;fill-rule:evenodd;stroke-linecap:round;stroke-linejoin:round" />
    <path
       stroke="#e5e5e5"
       stroke-width="1.83305"
       d="m 86.350241,76.86441 h 48.082729 c 0.32544,0 0.58737,0.519377 0.58737,1.160198 v 11.929268 c 0,0.640557 -0.26193,1.159934 -0.58737,1.159934 H 86.350241 c -0.322791,0 -0.587375,-0.519377 -0.587375,-1.159934 V 78.024608 c 0,-0.640821 0.264584,-1.160198 0.587375,-1.160198 z"
       fill="#ffffff"
       stroke-linecap="butt"
       opacity="1"
       stroke-linejoin="round"
       id="path2430"
       style="clip-rule:evenodd;fill-rule:evenodd;stroke-linecap:round;stroke-linejoin:round" />
    <path
       stroke="#e5e5e5"
       stroke-width="1.83305"
       d="m 90.350741,84.227764 c 0,-1.48881 1.949979,-2.695575 4.352396,-2.695575 2.405063,0 4.355042,1.206765 4.355042,2.695575 0,1.48881 -1.949979,2.695575 -4.355042,2.695575 -2.402417,0 -4.352396,-1.206765 -4.352396,-2.695575 z"
       fill="#6acbd9"
       stroke-linecap="butt"
       opacity="1"
       stroke-linejoin="round"
       id="path2434"
       style="clip-rule:evenodd;fill-rule:evenodd;stroke-linecap:round;stroke-linejoin:round" />
    <path
       stroke="#e5e5e5"
       stroke-width="1.83305"
       d="m 107.03272,79.923258 h 19.34369 c 0.24606,0 0.44714,0.277812 0.44714,0.620448 v 5.14985 c 0,0.342635 -0.20108,0.620447 -0.44714,0.620447 h -19.34369 c -0.24606,0 -0.44715,-0.277812 -0.44715,-0.620447 v -5.14985 c 0,-0.342636 0.20109,-0.620448 0.44715,-0.620448 z"
       fill="#edf4f5"
       stroke-linecap="butt"
       opacity="1"
       stroke-linejoin="round"
       id="path2438"
       style="clip-rule:evenodd;fill-rule:evenodd;stroke-linecap:round;stroke-linejoin:round" />
    <g
       opacity="1"
       id="g2450"
       style="clip-rule:evenodd;fill-rule:evenodd;stroke-linecap:round;stroke-linejoin:round"
       transform="matrix(0.26458333,0,0,0.26458333,-201.41588,-167.24996)">
      <path
         d="m 1225.26,967.492 c 0.01,1.32 -0.34,2.346 -1.03,3.077 -0.69,0.731 -1.48,1.139 -2.36,1.223 l -0.01,-1.377 c 0.67,-0.158 1.2,-0.472 1.59,-0.939 0.39,-0.468 0.59,-1.123 0.58,-1.965 0,-1.026 -0.36,-1.854 -1.09,-2.482 -0.72,-0.629 -1.83,-0.94 -3.32,-0.934 -1.22,0.005 -2.21,0.294 -2.97,0.867 -0.75,0.573 -1.13,1.425 -1.12,2.556 0,1.04 0.4,1.831 1.21,2.372 0.42,0.287 0.97,0.5 1.66,0.639 v 1.377 c -1.09,-0.119 -2.02,-0.522 -2.76,-1.21 -0.9,-0.824 -1.35,-1.939 -1.36,-3.344 0,-1.211 0.36,-2.229 1.09,-3.055 0.97,-1.088 2.46,-1.635 4.49,-1.644 1.53,-0.006 2.8,0.396 3.78,1.205 1.08,0.876 1.62,2.087 1.62,3.634 z"
         opacity="1"
         fill="#384d51"
         id="path2446" />
      <path
         d="m 1191.57,970.823 -1.25,0.005 -0.01,-3.512 -9.18,0.037 -0.01,-1.433 9.18,-0.038 -0.01,-3.512 1.24,-0.005 z"
         opacity="1"
         fill="#384d51"
         id="path2448" />
    </g>
    <path
       stroke="#a90d19"
       stroke-width="1.0226"
       d="m 121.37843,81.376879 0.0132,3.469216"
       fill="none"
       stroke-linecap="round"
       opacity="1"
       stroke-linejoin="round"
       id="path2454"
       style="clip-rule:evenodd;fill-rule:evenodd;stroke-linecap:round;stroke-linejoin:round" />
    <path
       stroke="#a90d19"
       stroke-width="1.0226"
       d="m 113.07845,81.376879 0.0132,3.469216"
       fill="none"
       stroke-linecap="round"
       opacity="1"
       stroke-linejoin="round"
       id="path2458"
       style="clip-rule:evenodd;fill-rule:evenodd;stroke-linecap:round;stroke-linejoin:round" />
    <path
       d="m 112.6657,46.606396 11.03048,20.266289 c 1.52929,2.814373 0.25135,5.073914 -2.85486,5.046662 L 98.457575,71.723556 c -3.108855,-0.02699 -4.34975,-2.30849 -2.772834,-5.095875 L 107.03801,46.557183 c 1.57692,-2.787385 4.09575,-2.76516 5.62769,0.04921 z"
       opacity="1"
       fill="#ffffff"
       id="path2514"
       style="clip-rule:evenodd;fill-rule:evenodd;stroke-width:0.264583;stroke-linecap:round;stroke-linejoin:round" />
    <path
       stroke="#950707"
       stroke-width="2.93677"
       d="m 109.7103,61.685264 -1.06891,-10.075333 h 2.38125 z"
       fill="#950707"
       stroke-linecap="round"
       opacity="1"
       stroke-linejoin="round"
       id="path2516"
       style="clip-rule:evenodd;fill-rule:evenodd;stroke-linecap:round;stroke-linejoin:round" />
    <path
       d="m 107.96141,66.939095 c 0,-1.08585 0.88106,-1.966383 1.96585,-1.966383 1.08744,0 1.96586,0.880533 1.96586,1.966383 0,1.086115 -0.87842,1.966648 -1.96586,1.966648 -1.08479,0 -1.96585,-0.880533 -1.96585,-1.966648 z"
       opacity="1"
       fill="#950707"
       id="path2518"
       style="clip-rule:evenodd;fill-rule:evenodd;stroke-width:0.264583;stroke-linecap:round;stroke-linejoin:round" />
  </g>
</svg>
