<?xml version="1.0" encoding="UTF-8" standalone="no"?>
<svg
   xmlns:dc="http://purl.org/dc/elements/1.1/"
   xmlns:cc="http://creativecommons.org/ns#"
   xmlns:rdf="http://www.w3.org/1999/02/22-rdf-syntax-ns#"
   xmlns:svg="http://www.w3.org/2000/svg"
   xmlns="http://www.w3.org/2000/svg"
   xmlns:sodipodi="http://sodipodi.sourceforge.net/DTD/sodipodi-0.dtd"
   xmlns:inkscape="http://www.inkscape.org/namespaces/inkscape"
   width="34.15884mm"
   height="34.65184mm"
   viewBox="0 0 34.15884 34.651841"
   version="1.1"
   id="svg2900"
   inkscape:version="1.0.2-2 (e86c870879, 2021-01-15)"
   sodipodi:docname="result_positive.svg">
  <defs
     id="defs2894" />
  <sodipodi:namedview
     id="base"
     pagecolor="#ffffff"
     bordercolor="#666666"
     borderopacity="1.0"
     inkscape:pageopacity="0.0"
     inkscape:pageshadow="2"
     inkscape:zoom="0.35"
     inkscape:cx="-436.50926"
     inkscape:cy="-383.21657"
     inkscape:document-units="mm"
     inkscape:current-layer="layer1"
     inkscape:document-rotation="0"
     showgrid="false"
     inkscape:window-width="1267"
     inkscape:window-height="1040"
     inkscape:window-x="870"
     inkscape:window-y="119"
     inkscape:window-maximized="0" />
  <metadata
     id="metadata2897">
    <rdf:RDF>
      <cc:Work
         rdf:about="">
        <dc:format>image/svg+xml</dc:format>
        <dc:type
           rdf:resource="http://purl.org/dc/dcmitype/StillImage" />
        <dc:title></dc:title>
      </cc:Work>
    </rdf:RDF>
  </metadata>
  <g
     inkscape:label="Layer 1"
     inkscape:groupmode="layer"
     id="layer1"
     transform="translate(-221.32641,-249.55939)">
    <path
       stroke="#3714e7"
       stroke-width="0.0201618"
       d="m 221.33649,266.88531 c 0,-9.56332 7.64226,-17.31584 17.06941,-17.31584 9.42715,0 17.06927,7.75252 17.06927,17.31584 0,9.56319 -7.64212,17.31584 -17.06927,17.31584 -9.42715,0 -17.06941,-7.75265 -17.06941,-17.31584 z"
       fill="#812f2f"
       stroke-linecap="round"
       opacity="1"
       stroke-linejoin="round"
       id="path932"
       style="clip-rule:evenodd;fill:#950707;fill-opacity:1;fill-rule:evenodd" />
    <path
       d="m 240.22361,257.2712 7.2296,13.28524 c 1.00397,1.84499 0.16609,3.32612 -1.87153,3.30826 l -14.67282,-0.12824 c -2.03762,-0.0179 -2.85148,-1.51344 -1.81784,-3.34058 l 7.4431,-13.15687 c 1.03364,-1.82714 2.68551,-1.81268 3.68949,0.0322 z"
       opacity="1"
       fill="#ffffff"
       id="path934"
       style="clip-rule:evenodd;fill-rule:evenodd;stroke-width:0.125732;stroke-linecap:round;stroke-linejoin:round" />
    <path
       stroke="#812f2f"
       stroke-width="1.39558"
       d="m 238.28507,267.15588 -0.70058,-6.60471 h 1.56059 z"
       fill="#812f2f"
       stroke-linecap="round"
       opacity="1"
       stroke-linejoin="round"
       id="path936"
       style="clip-rule:evenodd;fill:#950707;fill-opacity:1;fill-rule:evenodd;stroke:#950707;stroke-opacity:1" />
    <path
       d="m 237.13914,270.60007 c 0,-0.7119 0.57711,-1.28914 1.28914,-1.28914 0.71189,0 1.289,0.57724 1.289,1.28914 0,0.71202 -0.57711,1.28913 -1.289,1.28913 -0.71203,0 -1.28914,-0.57711 -1.28914,-1.28913 z"
       opacity="1"
       fill="#812f2f"
       id="path938"
       style="clip-rule:evenodd;fill:#950707;fill-opacity:1;fill-rule:evenodd;stroke-width:0.125732;stroke-linecap:round;stroke-linejoin:round" />
  </g>
</svg>
