<?xml version="1.0" encoding="UTF-8" standalone="no"?>
<svg
   xmlns:dc="http://purl.org/dc/elements/1.1/"
   xmlns:cc="http://creativecommons.org/ns#"
   xmlns:rdf="http://www.w3.org/1999/02/22-rdf-syntax-ns#"
   xmlns:svg="http://www.w3.org/2000/svg"
   xmlns="http://www.w3.org/2000/svg"
   xmlns:sodipodi="http://sodipodi.sourceforge.net/DTD/sodipodi-0.dtd"
   xmlns:inkscape="http://www.inkscape.org/namespaces/inkscape"
   width="34.138721mm"
   height="34.632183mm"
   viewBox="0 0 34.138721 34.632183"
   version="1.1"
   id="svg2900"
   inkscape:version="1.0.2-2 (e86c870879, 2021-01-15)"
   sodipodi:docname="result_fill.svg">
  <defs
     id="defs2894" />
  <sodipodi:namedview
     id="base"
     pagecolor="#ffffff"
     bordercolor="#666666"
     borderopacity="1.0"
     inkscape:pageopacity="0.0"
     inkscape:pageshadow="2"
     inkscape:zoom="0.35"
     inkscape:cx="-498.34302"
     inkscape:cy="74.018072"
     inkscape:document-units="mm"
     inkscape:current-layer="layer1"
     inkscape:document-rotation="0"
     showgrid="false"
     inkscape:window-width="1267"
     inkscape:window-height="1040"
     inkscape:window-x="26"
     inkscape:window-y="0"
     inkscape:window-maximized="0" />
  <metadata
     id="metadata2897">
    <rdf:RDF>
      <cc:Work
         rdf:about="">
        <dc:format>image/svg+xml</dc:format>
        <dc:type
           rdf:resource="http://purl.org/dc/dcmitype/StillImage" />
        <dc:title></dc:title>
      </cc:Work>
    </rdf:RDF>
  </metadata>
  <g
     inkscape:label="Layer 1"
     inkscape:groupmode="layer"
     id="layer1"
     transform="translate(-237.68659,-128.58272)">
    <g
       opacity="1"
       id="g910"
       style="clip-rule:evenodd;fill-rule:evenodd;stroke-linecap:round;stroke-linejoin:round"
       transform="matrix(0.12573221,0,0,0.12573221,230.82341,32.941244)">
      <path
         d="m 54.5857,898.396 c 0,-76.06 60.7813,-137.72 135.7593,-137.72 74.978,0 135.76,61.66 135.76,137.72 0,76.061 -60.782,137.724 -135.76,137.724 -74.978,0 -135.7593,-61.663 -135.7593,-137.724 z"
         opacity="1"
         fill="#6f4596"
         id="path892" />
      <path
         stroke="#aab7be"
         stroke-width="6.75384"
         d="m 137.602,844.08 h 103.621 c 1.265,0 2.291,1.245 2.291,2.78 v 130.823 c 0,1.535 -1.026,2.78 -2.291,2.78 H 137.602 c -1.265,0 -2.29,-1.245 -2.29,-2.78 V 846.86 c 0,-1.535 1.025,-2.78 2.29,-2.78 z"
         fill="#ebf3f6"
         stroke-linecap="round"
         opacity="1"
         stroke-linejoin="round"
         id="path894" />
      <path
         stroke="#7a7a7a"
         stroke-width="2.45313"
         d="m 154.891,905.801 h 67.63"
         fill="none"
         stroke-linecap="round"
         opacity="1"
         stroke-linejoin="round"
         id="path896" />
      <path
         stroke="#7a7a7a"
         stroke-width="2.45313"
         d="m 154.891,893.491 h 67.63"
         fill="none"
         stroke-linecap="round"
         opacity="1"
         stroke-linejoin="round"
         id="path898" />
      <path
         stroke="#7a7a7a"
         stroke-width="2.45313"
         d="m 154.891,881.182 h 67.63"
         fill="none"
         stroke-linecap="round"
         opacity="1"
         stroke-linejoin="round"
         id="path900" />
      <path
         stroke="#7a7a7a"
         stroke-width="2.45313"
         d="m 154.891,918.11 h 67.63"
         fill="none"
         stroke-linecap="round"
         opacity="1"
         stroke-linejoin="round"
         id="path902" />
      <path
         stroke="#7a7a7a"
         stroke-width="2.45313"
         d="m 154.891,930.42 h 67.63"
         fill="none"
         stroke-linecap="round"
         opacity="1"
         stroke-linejoin="round"
         id="path904" />
      <path
         stroke="#aab7be"
         stroke-width="6.75384"
         d="m 167.087,835.67 h 47.003 c 1.535,0 2.78,1.244 2.78,2.78 v 11.713 c 0,1.535 -1.245,2.78 -2.78,2.78 h -47.003 c -1.535,0 -2.78,-1.245 -2.78,-2.78 V 838.45 c 0,-1.536 1.245,-2.78 2.78,-2.78 z"
         fill="#aab7be"
         stroke-linecap="round"
         opacity="1"
         stroke-linejoin="round"
         id="path906" />
      <path
         stroke="#aab7be"
         stroke-width="6.75384"
         d="m 184.732,822.483 h 11.527 c 1.536,0 2.78,1.244 2.78,2.78 v 7.627 c 0,1.535 -1.244,2.78 -2.78,2.78 h -11.527 c -1.535,0 -2.78,-1.245 -2.78,-2.78 v -7.627 c 0,-1.536 1.245,-2.78 2.78,-2.78 z"
         fill="#aab7be"
         stroke-linecap="round"
         opacity="1"
         stroke-linejoin="round"
         id="path908" />
    </g>
  </g>
</svg>
