<?xml version="1.0" encoding="UTF-8" standalone="no"?>
<svg
   xmlns:dc="http://purl.org/dc/elements/1.1/"
   xmlns:cc="http://creativecommons.org/ns#"
   xmlns:rdf="http://www.w3.org/1999/02/22-rdf-syntax-ns#"
   xmlns:svg="http://www.w3.org/2000/svg"
   xmlns="http://www.w3.org/2000/svg"
   xmlns:sodipodi="http://sodipodi.sourceforge.net/DTD/sodipodi-0.dtd"
   xmlns:inkscape="http://www.inkscape.org/namespaces/inkscape"
   width="34.212151mm"
   height="34.705582mm"
   viewBox="0 0 34.21215 34.705582"
   version="1.1"
   id="svg2900"
   inkscape:version="1.0.2-2 (e86c870879, 2021-01-15)"
   sodipodi:docname="result_invalid.svg">
  <defs
     id="defs2894" />
  <sodipodi:namedview
     id="base"
     pagecolor="#ffffff"
     bordercolor="#666666"
     borderopacity="1.0"
     inkscape:pageopacity="0.0"
     inkscape:pageshadow="2"
     inkscape:zoom="0.35"
     inkscape:cx="64.652887"
     inkscape:cy="65.585354"
     inkscape:document-units="mm"
     inkscape:current-layer="layer1"
     inkscape:document-rotation="0"
     showgrid="false"
     inkscape:window-width="1267"
     inkscape:window-height="1040"
     inkscape:window-x="870"
     inkscape:window-y="119"
     inkscape:window-maximized="0" />
  <metadata
     id="metadata2897">
    <rdf:RDF>
      <cc:Work
         rdf:about="">
        <dc:format>image/svg+xml</dc:format>
        <dc:type
           rdf:resource="http://purl.org/dc/dcmitype/StillImage" />
        <dc:title></dc:title>
      </cc:Work>
    </rdf:RDF>
  </metadata>
  <g
     inkscape:label="Layer 1"
     inkscape:groupmode="layer"
     id="layer1"
     transform="translate(-88.727259,-130.81388)">
    <path
       stroke="#3714e7"
       stroke-width="0.0201618"
       d="m 88.73734,148.16663 c 0,-9.57803 7.65407,-17.34267 17.09581,-17.34267 9.44173,0 17.09618,7.76464 17.09618,17.34267 0,9.57816 -7.65445,17.34275 -17.09618,17.34275 -9.44174,0 -17.09581,-7.76459 -17.09581,-17.34275 z"
       fill="#b05623"
       stroke-linecap="round"
       opacity="1"
       stroke-linejoin="round"
       id="path866"
       style="clip-rule:evenodd;fill:#ce3e23;fill-opacity:1;fill-rule:evenodd" />
    <path
       d="m 105.48737,158.87337 -1.82456,-5.65608 -5.03325,3.16008 2.23803,-5.50556 -5.88694,-0.81461 5.25331,-2.77891 -3.98604,-4.40814 5.8105,1.24805 -0.22007,-5.93899 3.64902,4.69094 3.64893,-4.69094 -0.22007,5.93899 5.8105,-1.24805 -3.98604,4.40814 5.25331,2.77891 -5.88695,0.81461 2.23804,5.50556 -5.03325,-3.16008 z"
       opacity="1"
       fill="#fdef96"
       id="path868"
       style="clip-rule:evenodd;fill-rule:evenodd;stroke-width:0.107982;stroke-linecap:round;stroke-linejoin:round" />
    <g
       opacity="1"
       id="g872"
       style="clip-rule:evenodd;fill-rule:evenodd;stroke-linecap:round;stroke-linejoin:round"
       transform="matrix(0.12573221,0,0,0.12573221,-2.815449,123.80136)">
      <path
         d="m 895.565,150.645 c -0.247,0 -0.451,0.088 -0.626,0.262 -0.175,0.175 -0.262,0.379 -0.262,0.641 0,0.247 0.087,0.451 0.262,0.626 0.175,0.174 0.379,0.262 0.626,0.262 0.247,0 0.466,-0.088 0.64,-0.262 0.175,-0.175 0.262,-0.379 0.262,-0.626 0,-0.262 -0.087,-0.466 -0.262,-0.641 -0.174,-0.174 -0.393,-0.262 -0.64,-0.262 z"
         opacity="1"
         fill="#96dee8"
         id="path870" />
    </g>
    <g
       opacity="1"
       id="g876"
       style="clip-rule:evenodd;fill-rule:evenodd;stroke-linecap:round;stroke-linejoin:round"
       transform="matrix(0.12573221,0,0,0.12573221,-2.815449,123.80136)">
      <path
         d="m 895.565,150.645 c -0.247,0 -0.451,0.088 -0.626,0.262 -0.175,0.175 -0.262,0.379 -0.262,0.641 0,0.247 0.087,0.451 0.262,0.626 0.175,0.174 0.379,0.262 0.626,0.262 0.247,0 0.466,-0.088 0.64,-0.262 0.175,-0.175 0.262,-0.379 0.262,-0.626 0,-0.262 -0.087,-0.466 -0.262,-0.641 -0.174,-0.174 -0.393,-0.262 -0.64,-0.262 z"
         opacity="1"
         fill="#96dee8"
         id="path874" />
    </g>
  </g>
</svg>
