<?xml version="1.0" encoding="UTF-8" standalone="no"?> <!-- Created with Vectornator for iOS (http://vectornator.io/) --><!DOCTYPE svg PUBLIC "-//W3C//DTD SVG 1.1//EN" "http://www.w3.org/Graphics/SVG/1.1/DTD/svg11.dtd">
<svg height="100%" style="fill-rule:evenodd;clip-rule:evenodd;stroke-linecap:round;stroke-linejoin:round;" xmlns:xlink="http://www.w3.org/1999/xlink" xmlns="http://www.w3.org/2000/svg" xml:space="preserve" width="100%" xmlns:vectornator="http://vectornator.io" version="1.1" viewBox="0 0 841.995 595.35">
<metadata>
<vectornator:setting key="DimensionsVisible" value="1"/>
<vectornator:setting key="PencilOnly" value="0"/>
<vectornator:setting key="SnapToPoints" value="0"/>
<vectornator:setting key="OutlineMode" value="0"/>
<vectornator:setting key="CMYKEnabledKey" value="0"/>
<vectornator:setting key="RulersVisible" value="1"/>
<vectornator:setting key="SnapToEdges" value="0"/>
<vectornator:setting key="GuidesVisible" value="1"/>
<vectornator:setting key="DisplayWhiteBackground" value="0"/>
<vectornator:setting key="doHistoryDisabled" value="0"/>
<vectornator:setting key="SnapToGuides" value="1"/>
<vectornator:setting key="TimeLapseWatermarkDisabled" value="0"/>
<vectornator:setting key="Units" value="Millimeters"/>
<vectornator:setting key="DynamicGuides" value="0"/>
<vectornator:setting key="IsolateActiveLayer" value="0"/>
<vectornator:setting key="SnapToGrid" value="0"/>
</metadata>
<defs/>
<g id="Layer 1" vectornator:layerName="Layer 1">
<g opacity="1">
<path d="M513.32+115.914C518.507+115.914+522.093+112.383+522.093+107.307C522.093+104.769+521.265+102.893+518.341+98.9753L499.471+73.484L517.182+54.338C519.61+51.6896+520.493+49.9792+520.493+47.717C520.493+43.2477+517.017+39.7165+512.492+39.7165C509.899+39.7165+507.802+40.8752+505.32+43.5788L479.994+71.1115L479.001+71.1115L479.001+49.4274C479.001+43.1925+475.69+39.6061+469.842+39.6061C463.993+39.6061+460.738+43.1374+460.738+49.4274L460.738+106.203C460.738+112.383+464.158+116.025+470.062+116.025C475.801+116.025+479.001+112.493+479.001+106.203L479.001+92.0783L485.953+85.0158L504.271+110.231C507.14+114.204+509.899+115.914+513.32+115.914Z" opacity="1" fill="#3e84ba"/>
<path d="M611.643+104.879L612.526+104.879L612.526+112.328C612.526+120.273+608.829+123.86+600.994+123.86C595.035+123.86+591.67+121.818+588.966+120.328C587.035+119.17+585.435+118.232+583.007+118.232C578.648+118.232+575.889+120.825+575.889+124.742C575.889+128.549+578.317+131.75+582.345+133.957C586.649+136.329+593.049+137.598+601.105+137.598C619.037+137.598+630.238+129.377+630.238+113.762L630.238+65.5387C630.238+59.2487+626.982+55.8278+621.354+55.8278C616.333+55.8278+613.078+58.6418+612.692+64.049L612.692+65.5387L611.809+65.5387C609.767+59.8556+603.643+55.6623+595.201+55.6623C582.069+55.6623+573.517+65.5387+573.517+82.6432L573.517+87.1676C573.517+104.272+582.069+114.093+595.256+114.093C603.367+114.093+609.491+110.341+611.643+104.879ZM591.835+87.4435L591.835+83.4157C591.835+74.7531+595.808+69.401+602.208+69.401C608.829+69.401+612.526+74.9738+612.526+82.8087L612.526+88.1056C612.526+95.8302+608.885+101.458+602.319+101.458C595.918+101.458+591.835+96.0509+591.835+87.4435Z" opacity="1" fill="#3e84ba"/>
</g>
<g opacity="1">
<path d="M803.328+121.2L803.328+91.3497C803.328+78.0523+796.265+70.4932+783.851+70.4932C775.464+70.4932+768.677+74.8521+766.526+81.5836L765.643+81.5836L765.643+79.4317C765.367+73.859+762.332+70.8795+757.091+70.8795C751.738+70.8795+748.428+74.4107+748.428+80.2593L748.428+121.145C748.428+127.379+751.628+130.856+757.311+130.856C762.994+130.856+766.139+127.379+766.139+121.145L766.139+97.6949C766.139+89.9151+770.167+85.17+776.402+85.17C782.195+85.17+785.561+89.1978+785.561+95.9844L785.561+121.145C785.561+127.379+788.706+130.856+794.445+130.856C800.128+130.856+803.328+127.49+803.328+121.2Z" opacity="1" fill="#3e84ba"/>
</g>
<g opacity="1">
<path d="M723.688+130.557C729.316+130.557+732.571+127.191+732.571+120.846L732.571+59.9873C732.571+53.5869+729.316+50.2212+723.688+50.2212C718.06+50.2212+714.86+53.5869+714.86+59.9873L714.86+120.846C714.86+127.191+718.06+130.557+723.688+130.557Z" opacity="1" fill="#3e84ba"/>
</g>
<g opacity="1">
<path d="M682.412+104.046L683.295+104.046L683.295+111.494C683.295+119.44+679.598+123.026+671.763+123.026C665.804+123.026+662.439+120.984+659.735+119.495C657.804+118.336+656.204+117.398+653.776+117.398C649.417+117.398+646.658+119.991+646.658+123.909C646.658+127.716+649.086+130.916+653.114+133.123C657.418+135.496+663.818+136.765+671.874+136.765C689.806+136.765+701.007+128.544+701.007+112.929L701.007+64.7052C701.007+58.4151+697.751+54.9942+692.123+54.9942C687.102+54.9942+683.847+57.8082+683.461+63.2154L683.461+64.7052L682.578+64.7052C680.536+59.0221+674.412+54.8287+665.97+54.8287C652.838+54.8287+644.286+64.7052+644.286+81.8097L644.286+86.3341C644.286+103.439+652.838+113.26+666.025+113.26C674.136+113.26+680.26+109.508+682.412+104.046ZM662.604+86.61L662.604+82.5821C662.604+73.9195+666.577+68.5675+672.977+68.5675C679.598+68.5675+683.295+74.1402+683.295+81.9752L683.295+87.2721C683.295+94.9967+679.654+100.625+673.088+100.625C666.687+100.625+662.604+95.2174+662.604+86.61Z" opacity="1" fill="#3e84ba"/>
</g>
<g opacity="1">
<g opacity="1">
<path d="M104.656+474.763C109.843+474.763+113.429+471.232+113.429+466.156C113.429+463.618+112.601+461.742+109.677+457.824L90.8071+432.333L108.518+413.187C110.946+410.539+111.829+408.828+111.829+406.566C111.829+402.097+108.353+398.565+103.829+398.565C101.235+398.565+99.1386+399.724+96.6557+402.428L71.33+429.96L70.3368+429.96L70.3368+408.276C70.3368+402.041+67.0263+398.455+61.1777+398.455C55.329+398.455+52.0737+401.986+52.0737+408.276L52.0737+465.052C52.0737+471.232+55.4946+474.873+61.3984+474.873C67.1367+474.873+70.3368+471.342+70.3368+465.052L70.3368+450.927L77.289+443.865L95.6074+469.08C98.4765+473.053+101.235+474.763+104.656+474.763Z" opacity="1" fill="#3e84ba"/>
<path d="M132.41+474.873C138.038+474.873+141.293+471.508+141.293+465.163L141.293+404.304C141.293+397.903+138.038+394.538+132.41+394.538C126.782+394.538+123.581+397.903+123.581+404.304L123.581+465.163C123.581+471.508+126.782+474.873+132.41+474.873Z" opacity="1" fill="#3e84ba"/>
<path d="M253.3+465.218L253.3+435.368C253.3+422.07+246.237+414.511+233.823+414.511C225.436+414.511+218.649+418.87+216.497+425.601L215.615+425.601L215.615+423.45C215.339+417.877+212.304+414.897+207.062+414.897C201.71+414.897+198.4+418.429+198.4+424.277L198.4+465.163C198.4+471.397+201.6+474.873+207.283+474.873C212.966+474.873+216.111+471.397+216.111+465.163L216.111+441.713C216.111+433.933+220.139+429.188+226.374+429.188C232.167+429.188+235.533+433.216+235.533+440.002L235.533+465.163C235.533+471.397+238.678+474.873+244.416+474.873C250.1+474.873+253.3+471.508+253.3+465.218Z" opacity="1" fill="#3e84ba"/>
<path d="M301.634+463.728L302.517+463.728L302.517+471.177C302.517+479.122+298.82+482.708+290.985+482.708C285.026+482.708+281.66+480.667+278.956+479.177C277.025+478.018+275.425+477.08+272.997+477.08C268.639+477.08+265.88+479.674+265.88+483.591C265.88+487.398+268.308+490.599+272.335+492.806C276.639+495.178+283.039+496.447+291.095+496.447C309.027+496.447+320.228+488.226+320.228+472.611L320.228+424.388C320.228+418.098+316.973+414.677+311.345+414.677C306.324+414.677+303.068+417.491+302.682+422.898L302.682+424.388L301.799+424.388C299.758+418.705+293.633+414.511+285.191+414.511C272.06+414.511+263.507+424.388+263.507+441.492L263.507+446.017C263.507+463.121+272.06+472.942+285.247+472.942C293.357+472.942+299.482+469.19+301.634+463.728ZM281.826+446.292L281.826+442.265C281.826+433.602+285.798+428.25+292.199+428.25C298.82+428.25+302.517+433.823+302.517+441.658L302.517+446.955C302.517+454.679+298.875+460.307+292.309+460.307C285.909+460.307+281.826+454.9+281.826+446.292Z" opacity="1" fill="#3e84ba"/>
</g>
<path stroke="#c5c7c8" stroke-width="16.7912" d="M169.616+384.696L169.397+450.073" fill="#b4a6a6" stroke-linecap="round" opacity="1" stroke-linejoin="round"/>
<path d="M161.401+486.289C161.401+481.283+171.855+463.611+170.393+469.215C169.51+472.599+173.87+476.657+177.057+480.456C178.795+482.528+180.184+484.522+180.184+486.289C180.184+491.295+175.979+495.353+170.792+495.353C165.606+495.353+161.401+491.295+161.401+486.289Z" opacity="1" fill="#96dee8"/>
<g opacity="1">
<path d="M246.119+493.966C248.737+496.515+250.221+499.237+250.221+502.076C250.221+516.095+215.612+527.477+172.923+527.477C130.234+527.477+95.6246+516.095+95.6246+502.076C95.6246+499.522+96.8159+497.08+98.9526+494.755C94.0989+498.378+91.2905+502.394+91.2905+506.651C91.2905+522.299+127.918+534.987+173.078+534.987C218.237+534.987+254.846+522.299+254.846+506.651C254.846+502.09+251.645+497.783+246.119+493.966Z" opacity="1" fill="#3e84ba"/>
<path d="M233.02+488.097C233.515+489.366+233.852+490.652+233.852+491.978C233.852+505.628+206.636+516.685+173.058+516.685C139.48+516.685+112.265+505.628+112.265+491.978C112.265+490.753+112.557+489.558+112.98+488.381C110.236+491.126+108.666+494.101+108.666+497.216C108.666+510.866+137.529+521.923+173.136+521.923C208.742+521.924+237.625+510.866+237.625+497.216C237.625+493.988+235.956+490.923+233.02+488.097Z" opacity="1" fill="#3e84ba"/>
</g>
</g>
<g opacity="1">
<path d="M467.346+222.424L622.749+222.424C652.304+222.424+676.262+246.383+676.262+275.937L676.262+431.34C676.262+460.895+652.304+484.854+622.749+484.854L467.346+484.854C437.791+484.854+413.833+460.895+413.833+431.34L413.833+275.937C413.833+246.383+437.791+222.424+467.346+222.424Z" opacity="1" fill="#3e84ba"/>
<g opacity="1">
<path d="M632.389+401.316C635.543+404.013+637.338+406.899+637.353+409.916C637.426+424.817+595.956+437.075+544.732+437.273C493.508+437.47+451.919+425.533+451.845+410.632C451.832+407.917+453.249+405.316+455.801+402.835C449.995+406.708+446.646+410.99+446.669+415.515C446.75+432.147+490.768+445.463+544.957+445.254C599.146+445.045+643.008+431.39+642.926+414.758C642.902+409.91+639.039+405.347+632.389+401.316Z" opacity="1" fill="#ffffff"/>
<path d="M616.64+395.138C617.24+396.485+617.651+397.85+617.658+399.259C617.73+413.768+585.13+425.646+544.838+425.802C504.546+425.957+471.831+414.33+471.76+399.822C471.753+398.52+472.098+397.249+472.6+395.995C469.321+398.926+467.452+402.095+467.469+405.406C467.54+419.914+502.232+431.533+544.958+431.369C587.684+431.204+622.284+419.318+622.213+404.809C622.196+401.379+620.177+398.129+616.64+395.138Z" opacity="1" fill="#ffffff"/>
</g>
<path d="M504.022+346.403C504.022+324.086+550.627+245.302+544.107+270.285C540.17+285.372+559.609+303.463+573.818+320.401C581.565+329.636+587.757+338.529+587.757+346.403C587.757+368.72+569.012+386.812+545.889+386.812C522.766+386.812+504.022+368.72+504.022+346.403Z" opacity="1" fill="#96dee8"/>
</g>
<g opacity="1">
<path d="M89.4136+43.7383L250.228+43.7383C280.812+43.7383+305.605+68.5313+305.605+99.1149L305.605+259.929C305.605+290.513+280.812+315.306+250.228+315.306L89.4136+315.306C58.83+315.306+34.0371+290.513+34.0371+259.929L34.0371+99.1149C34.0371+68.5313+58.83+43.7383+89.4136+43.7383Z" opacity="1" fill="#3e84ba"/>
<g opacity="1">
<g opacity="1">
<path d="M108.053+203.04C112.106+203.04+114.909+200.28+114.909+196.314C114.909+194.33+114.262+192.864+111.977+189.803L97.2314+169.884L111.071+154.923C112.968+152.854+113.658+151.517+113.658+149.749C113.658+146.257+110.942+143.498+107.407+143.498C105.38+143.498+103.742+144.403+101.802+146.516L82.0118+168.03L81.2358+168.03L81.2358+151.086C81.2358+146.214+78.6489+143.411+74.0787+143.411C69.5085+143.411+66.9647+146.171+66.9647+151.086L66.9647+195.451C66.9647+200.28+69.6378+203.126+74.2511+203.126C78.7351+203.126+81.2358+200.366+81.2358+195.451L81.2358+184.414L86.6683+178.895L100.982+198.599C103.224+201.703+105.38+203.04+108.053+203.04Z" opacity="1" fill="#ffffff"/>
<path d="M129.74+203.126C134.138+203.126+136.682+200.496+136.682+195.537L136.682+147.982C136.682+142.98+134.138+140.35+129.74+140.35C125.342+140.35+122.842+142.98+122.842+147.982L122.842+195.537C122.842+200.496+125.342+203.126+129.74+203.126Z" opacity="1" fill="#ffffff"/>
<path d="M224.205+195.581L224.205+172.255C224.205+161.865+218.686+155.958+208.986+155.958C202.432+155.958+197.129+159.364+195.447+164.624L194.758+164.624L194.758+162.943C194.542+158.588+192.171+156.26+188.075+156.26C183.893+156.26+181.306+159.019+181.306+163.589L181.306+195.537C181.306+200.409+183.806+203.126+188.247+203.126C192.688+203.126+195.146+200.409+195.146+195.537L195.146+177.214C195.146+171.134+198.293+167.427+203.165+167.427C207.692+167.427+210.322+170.574+210.322+175.877L210.322+195.537C210.322+200.409+212.78+203.126+217.264+203.126C221.704+203.126+224.205+200.496+224.205+195.581Z" opacity="1" fill="#ffffff"/>
<path d="M261.974+194.417L262.664+194.417L262.664+200.237C262.664+206.446+259.775+209.248+253.653+209.248C248.996+209.248+246.366+207.653+244.254+206.489C242.745+205.583+241.494+204.85+239.597+204.85C236.191+204.85+234.035+206.877+234.035+209.938C234.035+212.913+235.932+215.414+239.08+217.138C242.443+218.992+247.444+219.984+253.739+219.984C267.751+219.984+276.504+213.56+276.504+201.358L276.504+163.676C276.504+158.76+273.96+156.087+269.562+156.087C265.639+156.087+263.095+158.286+262.793+162.511L262.793+163.676L262.103+163.676C260.508+159.235+255.722+155.958+249.126+155.958C238.864+155.958+232.181+163.676+232.181+177.041L232.181+180.577C232.181+193.942+238.864+201.617+249.169+201.617C255.507+201.617+260.292+198.685+261.974+194.417ZM246.496+180.792L246.496+177.645C246.496+170.876+249.6+166.694+254.601+166.694C259.775+166.694+262.664+171.048+262.664+177.17L262.664+181.31C262.664+187.346+259.818+191.743+254.687+191.743C249.686+191.743+246.496+187.518+246.496+180.792Z" opacity="1" fill="#ffffff"/>
</g>
<path stroke="#c5c7c8" stroke-width="16.7912" d="M158.814+132.66L158.643+183.746" fill="#b4a6a6" stroke-linecap="round" opacity="1" stroke-linejoin="round"/>
<path d="M152.394+212.046C152.394+208.134+160.563+194.325+159.421+198.704C158.73+201.348+162.138+204.519+164.628+207.488C165.986+209.107+167.072+210.665+167.072+212.046C167.072+215.957+163.786+219.129+159.733+219.129C155.68+219.129+152.394+215.957+152.394+212.046Z" opacity="1" fill="#96dee8"/>
<g opacity="1">
<path d="M218.594+218.045C220.64+220.037+221.8+222.164+221.8+224.382C221.8+235.337+194.755+244.231+161.398+244.231C128.04+244.231+100.996+235.337+100.996+224.382C100.996+222.386+101.927+220.478+103.596+218.661C99.8037+221.492+97.6092+224.631+97.6092+227.957C97.6092+240.185+126.231+250.099+161.519+250.099C196.807+250.099+225.413+240.185+225.413+227.957C225.413+224.393+222.912+221.027+218.594+218.045Z" opacity="1" fill="#ffffff"/>
<path d="M208.358+213.459C208.745+214.451+209.009+215.455+209.009+216.492C209.009+227.158+187.742+235.798+161.504+235.798C135.265+235.798+113.999+227.158+113.999+216.492C113.999+215.534+114.227+214.601+114.558+213.681C112.413+215.826+111.186+218.15+111.186+220.585C111.186+231.251+133.741+239.891+161.564+239.891C189.388+239.891+211.957+231.251+211.957+220.585C211.957+218.062+210.652+215.667+208.358+213.459Z" opacity="1" fill="#ffffff"/>
</g>
</g>
</g>
</g>
</svg>
