<?xml version="1.0" encoding="UTF-8" standalone="no"?> <!-- Created with Vectornator for iOS (http://vectornator.io/) --><!DOCTYPE svg PUBLIC "-//W3C//DTD SVG 1.1//EN" "http://www.w3.org/Graphics/SVG/1.1/DTD/svg11.dtd">
<svg height="100%" style="fill-rule:evenodd;clip-rule:evenodd;stroke-linecap:round;stroke-linejoin:round;" xmlns:xlink="http://www.w3.org/1999/xlink" xmlns="http://www.w3.org/2000/svg" xml:space="preserve" width="100%" xmlns:vectornator="http://vectornator.io" version="1.1" viewBox="0 0 1683.99 1190.7">
<metadata>
<vectornator:setting key="DimensionsVisible" value="1"/>
<vectornator:setting key="PencilOnly" value="0"/>
<vectornator:setting key="SnapToPoints" value="0"/>
<vectornator:setting key="OutlineMode" value="0"/>
<vectornator:setting key="CMYKEnabledKey" value="0"/>
<vectornator:setting key="RulersVisible" value="1"/>
<vectornator:setting key="SnapToEdges" value="0"/>
<vectornator:setting key="GuidesVisible" value="1"/>
<vectornator:setting key="DisplayWhiteBackground" value="0"/>
<vectornator:setting key="doHistoryDisabled" value="0"/>
<vectornator:setting key="SnapToGuides" value="1"/>
<vectornator:setting key="TimeLapseWatermarkDisabled" value="0"/>
<vectornator:setting key="Units" value="Millimeters"/>
<vectornator:setting key="DynamicGuides" value="0"/>
<vectornator:setting key="IsolateActiveLayer" value="0"/>
<vectornator:setting key="SnapToGrid" value="0"/>
</metadata>
<defs/>
<g id="Layer 2" vectornator:layerName="Layer 2">
<g opacity="1">
<path stroke="#3714e7" stroke-width="0.160355" d="M378.673+197.368C378.673+121.249+439.501+59.5427+514.536+59.5427C589.572+59.5427+650.4+121.249+650.4+197.368C650.4+273.486+589.572+335.192+514.536+335.192C439.501+335.192+378.673+273.486+378.673+197.368Z" fill="#345f63" stroke-linecap="round" opacity="1" stroke-linejoin="round"/>
<g opacity="1">
<path stroke="#3714e7" stroke-width="0.160355" d="M424.48+250.519C424.48+234.742+463.541+221.952+511.724+221.952C559.908+221.952+598.969+234.742+598.969+250.519C598.969+266.297+559.908+279.087+511.724+279.087C463.541+279.087+424.48+266.297+424.48+250.519Z" fill="#d4c4b7" stroke-linecap="round" opacity="1" stroke-linejoin="round"/>
<path stroke="#3714e7" stroke-width="0.160355" d="M468.073+246.67C468.073+238.657+487.721+232.161+511.957+232.161C536.194+232.161+555.842+238.657+555.842+246.67C555.842+254.683+536.194+261.179+511.957+261.179C487.721+261.179+468.073+254.683+468.073+246.67Z" fill="#877465" stroke-linecap="round" opacity="1" stroke-linejoin="round"/>
<path d="M449.617+184.806C449.617+165.813+477.64+162.403+507.744+161.99C539.187+161.558+572.77+164.967+572.77+184.806C572.77+223.637+545.201+255.116+511.193+255.116C477.186+255.116+449.617+223.637+449.617+184.806Z" opacity="1" fill="#877465"/>
<path d="M442.562+178.193C442.562+159.2+473.765+155.791+507.284+155.377C542.296+154.946+579.69+158.355+579.69+178.193C579.69+217.024+548.993+248.503+511.126+248.503C473.259+248.503+442.562+217.024+442.562+178.193Z" opacity="1" fill="#d4c4b7"/>
<path stroke="#3714e7" stroke-width="0.160355" d="M452.325+177.409C452.325+171.507+479.414+166.722+512.829+166.722C517.852+166.722+520.42+166.83+524.933+167.033C550.446+168.185+569.363+172.394+569.363+177.409C569.363+183.311+543.163+188.096+510.844+188.096C478.524+188.096+452.325+183.311+452.325+177.409Z" fill="#75410e" stroke-linecap="round" opacity="1" stroke-linejoin="round"/>
<path d="M493.443+133.38C489.595+125.88+485.383+123.882+486.451+118.47C488.047+110.376+496.703+100.54+497.923+100.54C499.96+100.54+490.242+115.519+490.242+127.595C490.242+131.878+488.646+136.141+486.495+139.86C482.582+146.625+476.834+151.587+475.52+151.587C473.483+151.587+498.881+143.981+493.443+133.38Z" opacity="1" fill="#c5af9e"/>
<path d="M516.351+127.579C512.182+118.962+507.618+116.667+508.774+110.45C510.504+101.152+519.884+89.8508+521.206+89.8508C523.412+89.8508+512.883+107.059+512.883+120.932C512.883+125.853+511.153+130.751+508.822+135.024C504.583+142.795+498.354+148.495+496.93+148.495C494.724+148.495+522.243+139.758+516.351+127.579Z" opacity="1" fill="#c5af9e"/>
<path d="M535.618+132.566C532.31+125.711+528.688+123.884+529.606+118.938C530.979+111.539+538.422+102.548+539.471+102.548C541.222+102.548+532.866+116.24+532.866+127.278C532.866+131.194+531.494+135.091+529.644+138.49C526.28+144.673+521.337+149.209+520.207+149.209C518.456+149.209+540.295+142.257+535.618+132.566Z" opacity="1" fill="#c5af9e"/>
</g>
</g>
</g>
<g id="Layer 1" vectornator:layerName="Layer 1">
<g opacity="1">
<path stroke="#3714e7" stroke-width="0.160355" d="M55.3027+533.947C63.1096+458.289+129.899+403.194+204.481+410.889C279.063+418.585+333.195+486.158+325.388+561.816C317.581+637.475+250.792+692.57+176.21+684.874C101.628+677.179+47.4958+609.606+55.3027+533.947Z" fill="#6f4596" stroke-linecap="round" opacity="1" stroke-linejoin="round"/>
<path d="M137.898+559.097C140.591+532.989+204.624+446.447+193.981+474.887C187.554+492.061+208.111+515.573+222.689+537.103C230.637+548.842+236.808+559.992+235.858+569.205C233.164+595.313+209.051+614.215+182+611.424C154.948+608.632+135.204+585.205+137.898+559.097Z" opacity="1" fill="#96dee8"/>
</g>
<g opacity="1">
<path stroke="#3714e7" stroke-width="0.160355" d="M728.157+193.787C728.157+117.609+789.033+55.8536+864.127+55.8536C939.221+55.8536+1000.1+117.609+1000.1+193.787C1000.1+269.966+939.221+331.721+864.127+331.721C789.033+331.721+728.157+269.966+728.157+193.787Z" fill="#b05623" stroke-linecap="round" opacity="1" stroke-linejoin="round"/>
<path d="M861.377+292.47L844.48+240.09L797.868+269.355L818.594+218.369L764.076+210.825L812.726+185.09L775.812+144.267L829.622+155.825L827.584+100.825L861.377+144.267L895.169+100.825L893.131+155.825L946.941+144.267L910.027+185.09L958.677+210.825L904.159+218.369L924.885+269.355L878.273+240.09L861.377+292.47Z" opacity="1" fill="#fdef96"/>
<g opacity="1">
<path d="M895.565+150.645C895.318+150.645+895.114+150.733+894.939+150.907C894.764+151.082+894.677+151.286+894.677+151.548C894.677+151.795+894.764+151.999+894.939+152.174C895.114+152.348+895.318+152.436+895.565+152.436C895.812+152.436+896.031+152.348+896.205+152.174C896.38+151.999+896.467+151.795+896.467+151.548C896.467+151.286+896.38+151.082+896.205+150.907C896.031+150.733+895.812+150.645+895.565+150.645Z" opacity="1" fill="#96dee8"/>
</g>
<g opacity="1">
<path d="M895.565+150.645C895.318+150.645+895.114+150.733+894.939+150.907C894.764+151.082+894.677+151.286+894.677+151.548C894.677+151.795+894.764+151.999+894.939+152.174C895.114+152.348+895.318+152.436+895.565+152.436C895.812+152.436+896.031+152.348+896.205+152.174C896.38+151.999+896.467+151.795+896.467+151.548C896.467+151.286+896.38+151.082+896.205+150.907C896.031+150.733+895.812+150.645+895.565+150.645Z" opacity="1" fill="#96dee8"/>
</g>
</g>
<g opacity="1">
<path stroke="#3714e7" stroke-width="0.160355" d="M370.218+532.67C370.218+456.61+430.999+394.95+505.977+394.95C580.955+394.95+641.737+456.61+641.737+532.67C641.737+608.731+580.955+670.39+505.977+670.39C430.999+670.39+370.218+608.731+370.218+532.67Z" fill="#396367" stroke-linecap="round" opacity="1" stroke-linejoin="round"/>
<g opacity="1">
<path stroke="#a69e9e" stroke-width="20.5274" d="M410.951+540.819C407.358+488.358+445.978+442.985+497.211+439.477C548.443+435.968+592.888+475.652+596.48+528.114C600.073+580.575+561.454+625.947+510.221+629.456C458.989+632.965+414.544+593.28+410.951+540.819Z" fill="#ffffff" stroke-linecap="butt" opacity="1" stroke-linejoin="round"/>
<path stroke="#a69e9e" stroke-width="20.5274" d="M500.884+540.037L501.87+481.164" fill="none" stroke-linecap="round" opacity="1" stroke-linejoin="round"/>
<path stroke="#a69e9e" stroke-width="20.5274" d="M500.192+539.946L555.649+559.731" fill="none" stroke-linecap="round" opacity="1" stroke-linejoin="round"/>
</g>
</g>
<g opacity="1">
<path d="M54.5857+898.396C54.5857+822.336+115.367+760.676+190.345+760.676C265.323+760.676+326.105+822.336+326.105+898.396C326.105+974.457+265.323+1036.12+190.345+1036.12C115.367+1036.12+54.5857+974.457+54.5857+898.396Z" opacity="1" fill="#6f4596"/>
<path stroke="#aab7be" stroke-width="6.75384" d="M137.602+844.08L241.223+844.08C242.488+844.08+243.514+845.325+243.514+846.86L243.514+977.683C243.514+979.218+242.488+980.463+241.223+980.463L137.602+980.463C136.337+980.463+135.312+979.218+135.312+977.683L135.312+846.86C135.312+845.325+136.337+844.08+137.602+844.08Z" fill="#ebf3f6" stroke-linecap="round" opacity="1" stroke-linejoin="round"/>
<path stroke="#7a7a7a" stroke-width="2.45313" d="M154.891+905.801L222.521+905.801" fill="none" stroke-linecap="round" opacity="1" stroke-linejoin="round"/>
<path stroke="#7a7a7a" stroke-width="2.45313" d="M154.891+893.491L222.521+893.491" fill="none" stroke-linecap="round" opacity="1" stroke-linejoin="round"/>
<path stroke="#7a7a7a" stroke-width="2.45313" d="M154.891+881.182L222.521+881.182" fill="none" stroke-linecap="round" opacity="1" stroke-linejoin="round"/>
<path stroke="#7a7a7a" stroke-width="2.45313" d="M154.891+918.11L222.521+918.11" fill="none" stroke-linecap="round" opacity="1" stroke-linejoin="round"/>
<path stroke="#7a7a7a" stroke-width="2.45313" d="M154.891+930.42L222.521+930.42" fill="none" stroke-linecap="round" opacity="1" stroke-linejoin="round"/>
<path stroke="#aab7be" stroke-width="6.75384" d="M167.087+835.67L214.09+835.67C215.625+835.67+216.87+836.914+216.87+838.45L216.87+850.163C216.87+851.698+215.625+852.943+214.09+852.943L167.087+852.943C165.552+852.943+164.307+851.698+164.307+850.163L164.307+838.45C164.307+836.914+165.552+835.67+167.087+835.67Z" fill="#aab7be" stroke-linecap="round" opacity="1" stroke-linejoin="round"/>
<path stroke="#aab7be" stroke-width="6.75384" d="M184.732+822.483L196.259+822.483C197.795+822.483+199.039+823.727+199.039+825.263L199.039+832.89C199.039+834.425+197.795+835.67+196.259+835.67L184.732+835.67C183.197+835.67+181.952+834.425+181.952+832.89L181.952+825.263C181.952+823.727+183.197+822.483+184.732+822.483Z" fill="#aab7be" stroke-linecap="round" opacity="1" stroke-linejoin="round"/>
</g>
<g opacity="1">
<path stroke="#3714e7" stroke-width="0.160355" d="M1045.12+889.5C1045.12+813.44+1105.9+751.78+1180.88+751.78C1255.86+751.78+1316.64+813.44+1316.64+889.5C1316.64+965.561+1255.86+1027.22+1180.88+1027.22C1105.9+1027.22+1045.12+965.561+1045.12+889.5Z" fill="#3e84ba" stroke-linecap="round" opacity="1" stroke-linejoin="round"/>
<path d="M1069.44+897.327C1065.16+834.825+1111.17+780.768+1172.21+776.588C1233.24+772.408+1286.19+819.687+1290.48+882.189C1294.76+944.691+1248.74+998.748+1187.71+1002.93C1126.67+1007.11+1073.72+959.829+1069.44+897.327Z" opacity="1" fill="#ffffff"/>
<path stroke="#3e84ba" stroke-width="42.1971" d="M1178.31+835.329L1178.61+946.246" fill="none" stroke-linecap="round" opacity="1" stroke-linejoin="round"/>
<path stroke="#3e84ba" stroke-width="42.1971" d="M1124.99+893.819L1235.81+893.821" fill="none" stroke-linecap="round" opacity="1" stroke-linejoin="round"/>
</g>
<g opacity="1">
<path stroke="#3714e7" stroke-width="0.160355" d="M710.341+898.396C710.341+822.336+771.123+760.676+846.101+760.676C921.079+760.676+981.861+822.336+981.861+898.396C981.861+974.457+921.079+1036.12+846.101+1036.12C771.123+1036.12+710.341+974.457+710.341+898.396Z" fill="#2a522b" stroke-linecap="round" opacity="1" stroke-linejoin="round"/>
<g opacity="1">
<path stroke="#ffffff" stroke-width="34.7672" d="M788.447+900.976L830.003+947.115" fill="none" stroke-linecap="round" opacity="1" stroke-linejoin="round"/>
<path stroke="#ffffff" stroke-width="34.7672" d="M831.661+946.232L923.75+850.536" fill="none" stroke-linecap="round" opacity="1" stroke-linejoin="round"/>
</g>
</g>
<g opacity="1">
<path stroke="#3714e7" stroke-width="0.160355" d="M716.324+547.882C716.324+471.821+777.106+410.162+852.084+410.162C927.062+410.162+987.843+471.821+987.843+547.882C987.843+623.942+927.062+685.602+852.084+685.602C777.106+685.602+716.324+623.942+716.324+547.882Z" fill="#812f2f" stroke-linecap="round" opacity="1" stroke-linejoin="round"/>
<g opacity="1">
<path d="M866.541+471.417L924.041+577.08C932.026+591.754+925.362+603.534+909.156+603.392L792.457+602.372C776.251+602.23+769.778+590.335+777.999+575.803L837.197+471.161C845.418+456.629+858.556+456.744+866.541+471.417Z" opacity="1" fill="#ffffff"/>
<path stroke="#812f2f" stroke-width="11.0996" d="M851.123+550.034L845.551+497.504L857.963+497.504L851.123+550.034Z" fill="#812f2f" stroke-linecap="round" opacity="1" stroke-linejoin="round"/>
<path d="M842.009+577.427C842.009+571.765+846.599+567.174+852.262+567.174C857.924+567.174+862.514+571.765+862.514+577.427C862.514+583.09+857.924+587.68+852.262+587.68C846.599+587.68+842.009+583.09+842.009+577.427Z" opacity="1" fill="#812f2f"/>
</g>
</g>
<g opacity="1">
<path stroke="#3714e7" stroke-width="0.160355" d="M1040.27+545.039C1040.27+468.978+1101.05+407.319+1176.03+407.319C1251.01+407.319+1311.79+468.978+1311.79+545.039C1311.79+621.099+1251.01+682.758+1176.03+682.758C1101.05+682.758+1040.27+621.099+1040.27+545.039Z" fill="#3e84ba" stroke-linecap="round" opacity="1" stroke-linejoin="round"/>
<g opacity="1">
<path stroke="#a69d9d" stroke-width="6.92808" d="M1119.37+557.583C1099.83+536.431+1101.14+503.447+1122.3+483.912C1143.45+464.377+1176.43+465.687+1195.97+486.84C1215.5+507.992+1214.19+540.976+1193.04+560.511C1171.89+580.046+1138.9+578.736+1119.37+557.583Z" fill="#ffffff" stroke-linecap="butt" opacity="1" stroke-linejoin="round"/>
<path stroke="#a69d9d" stroke-width="6.92808" d="M1191.53+559.834L1241.78+614.727" fill="none" stroke-linecap="butt" opacity="1" stroke-linejoin="round"/>
<path stroke="#a69d9d" stroke-width="6.92808" d="M1210.07+584.549L1215.51+579.558C1216.45+578.694+1217.86+578.693+1218.66+579.556L1252.23+615.71C1253.04+616.573+1252.92+617.973+1251.98+618.837L1246.55+623.829C1245.61+624.693+1244.2+624.694+1243.39+623.831L1209.82+587.677C1209.02+586.814+1209.13+585.413+1210.07+584.549Z" fill="#a49a9a" stroke-linecap="round" opacity="1" stroke-linejoin="round"/>
<path stroke="#a69d9d" stroke-width="6.92808" d="M1149.93+526.833C1141.04+517.207+1141.41+502.404+1150.76+493.769C1160.11+485.134+1174.89+485.938+1183.78+495.564C1192.67+505.19+1192.3+519.994+1182.95+528.629C1173.6+537.263+1158.82+536.46+1149.93+526.833Z" fill="#ffffff" stroke-linecap="butt" opacity="1" stroke-linejoin="round"/>
<path d="M1122.81+510.06L1152.03+483.071C1152.98+482.191+1154.46+482.241+1155.33+483.183L1174.08+503.489C1174.95+504.431+1174.89+505.908+1173.93+506.788L1144.71+533.777C1143.76+534.657+1142.28+534.607+1141.41+533.664L1122.66+513.359C1121.79+512.417+1121.85+510.94+1122.81+510.06Z" opacity="1" fill="#ffffff"/>
<path d="M1174.09+516.057L1200.19+516.692C1201.05+516.713+1201.72+517.323+1201.7+518.055L1201.32+533.828C1201.3+534.56+1200.6+535.137+1199.75+535.116L1173.64+534.481C1172.79+534.46+1172.11+533.85+1172.13+533.118L1172.51+517.344C1172.53+516.613+1173.24+516.036+1174.09+516.057Z" opacity="1" fill="#ffffff"/>
<path d="M1144.73+533.196L1171.44+508.527C1172.31+507.723+1173.71+507.82+1174.56+508.744L1192.95+528.657C1193.8+529.581+1193.79+530.982+1192.92+531.786L1166.21+556.455C1165.34+557.259+1163.94+557.162+1163.09+556.238L1144.7+536.325C1143.84+535.401+1143.86+534+1144.73+533.196Z" opacity="1" fill="#ffffff"/>
</g>
</g>
<g opacity="1">
<path stroke="#3714e7" stroke-width="0.160355" d="M57.1543+186.528C57.1543+109.91+118.381+47.7989+193.909+47.7989C269.437+47.7989+330.664+109.91+330.664+186.528C330.664+263.146+269.437+325.258+193.909+325.258C118.381+325.258+57.1543+263.146+57.1543+186.528Z" fill="#6f4596" stroke-linecap="round" opacity="1" stroke-linejoin="round"/>
<path d="M191.668+256.355L166.276+210.394L120.1+185.394L166.062+160.002L191.062+113.826L216.453+159.788L262.629+184.788L216.668+210.179L191.668+256.355Z" opacity="1" fill="#edebee"/>
</g>
<path stroke="#3714e7" stroke-width="0.160355" d="M1042.7+207.307C1042.7+130.334+1104.21+67.9346+1180.09+67.9346C1255.97+67.9346+1317.48+130.334+1317.48+207.307C1317.48+284.28+1255.97+346.679+1180.09+346.679C1104.21+346.679+1042.7+284.28+1042.7+207.307Z" fill="#3e84ba" stroke-linecap="round" opacity="1" stroke-linejoin="round"/>
<g opacity="1">
<path stroke="#f9f9f9" stroke-width="42.1971" d="M1111.32+211.349L1222.14+211.35" fill="#f9f9f9" stroke-linecap="round" opacity="1" stroke-linejoin="round"/>
<path d="M1195.86+267.001L1195.73+210.93L1195.6+154.859L1229.67+182.737L1263.73+210.615L1229.79+238.808L1195.86+267.001Z" opacity="1" fill="#f9f9f9"/>
</g>
<g opacity="1">
<path stroke="#3714e7" stroke-width="0.160355" d="M372.394+904.537C372.394+828.452+433.195+766.773+508.197+766.773C583.2+766.773+644.001+828.452+644.001+904.537C644.001+980.622+583.2+1042.3+508.197+1042.3C433.195+1042.3+372.394+980.622+372.394+904.537Z" fill="#396367" stroke-linecap="round" opacity="1" stroke-linejoin="round"/>
<g opacity="1">
<path stroke="#ededed" stroke-width="12.7076" d="M466.816+972.644L553.871+974.002" fill="none" stroke-linecap="round" opacity="1" stroke-linejoin="round"/>
<path stroke="#ededed" stroke-width="12.7076" d="M466.752+866.141L465.392+970.704" fill="none" stroke-linecap="round" opacity="1" stroke-linejoin="round"/>
<path stroke="#ededed" stroke-width="12.2371" d="M554.799+867.58L553.439+973.412" fill="none" stroke-linecap="round" opacity="1" stroke-linejoin="round"/>
<path stroke="#ededed" stroke-width="12.2371" d="M554.95+801.037L489.119+953.226" fill="none" stroke-linecap="round" opacity="1" stroke-linejoin="round"/>
</g>
</g>
</g>
</svg>
